<svg width="128" height="128" viewBox="0 0 128 128" fill="none" xmlns="http://www.w3.org/2000/svg">
<g id="Group 70">
<g id="Group 69">
<path id="Fill 1" fill-rule="evenodd" clip-rule="evenodd" d="M52.8355 7.87407L39.5081 4.87108L32.208 16.4195L18.7453 18.7445L16.4195 32.2072L4.87191 39.5073L7.87489 52.8355L0 63.9996L7.87489 75.1637L4.87191 88.4911L16.4195 95.792L18.7453 109.255L32.208 111.581L39.5081 123.128L52.8355 120.125L64.0004 128L75.1645 120.125L88.4919 123.128L95.7936 111.581L109.255 109.255L111.581 95.792L123.129 88.4911L120.126 75.1637L128 63.9996L120.126 52.8355L123.129 39.5073L111.581 32.2072L109.255 18.7445L95.7936 16.4195L88.4919 4.87108L75.1645 7.87407L64.0004 0L52.8355 7.87407Z" fill="#FFE947"/>
<g id="Group 68">
<path id="Fill 2" fill-rule="evenodd" clip-rule="evenodd" d="M96.0687 64.9782C96.0687 46.7439 81.2915 31.9609 63.0615 31.9609C44.8332 31.9609 30.0559 46.7439 30.0559 64.9782C30.0559 83.2133 44.8332 97.9963 63.0615 97.9963C81.2915 97.9963 96.0687 83.2133 96.0687 64.9782Z" fill="white"/>
<path id="Fill 4" fill-rule="evenodd" clip-rule="evenodd" d="M16.91 50.6346L17.2397 52.0244L18.5367 52.435L18.189 51.0402L23.1316 52.6081L23.5124 51.407L17.2907 49.4336L16.91 50.6346Z" fill="#0D0E17"/>
<path id="Fill 6" fill-rule="evenodd" clip-rule="evenodd" d="M24.9228 45.4786C24.8231 45.6723 24.6879 45.824 24.5165 45.9328C24.3451 46.0425 24.1581 46.1026 23.9553 46.1142C23.7526 46.1257 23.5548 46.0812 23.3604 45.9823L21.4486 45.003C21.2549 44.9041 21.1033 44.7689 20.9945 44.5974C20.8857 44.426 20.8248 44.2388 20.814 44.0361C20.8017 43.8333 20.8462 43.6346 20.9451 43.4409C21.044 43.2472 21.1791 43.0955 21.3505 42.9867C21.5219 42.8779 21.7098 42.8169 21.9125 42.8053C22.1152 42.7938 22.313 42.8375 22.5058 42.9372L24.4193 43.9165C24.6121 44.0163 24.7637 44.1515 24.8725 44.3229C24.9821 44.4944 25.0431 44.6807 25.0538 44.8835C25.0653 45.0863 25.0217 45.2849 24.9228 45.4786ZM24.9121 42.7534L23.1692 41.8598C22.7399 41.6406 22.3171 41.5375 21.9018 41.5516C21.4865 41.5672 21.1066 41.6892 20.7605 41.9208C20.4152 42.1508 20.1326 42.4814 19.9125 42.9117C19.6917 43.342 19.5887 43.7649 19.6043 44.1803C19.6183 44.5958 19.7419 44.9758 19.9719 45.3212C20.2018 45.6674 20.533 45.9493 20.9624 46.1702L22.7061 47.063C23.1362 47.2831 23.559 47.3861 23.9743 47.3713C24.3888 47.3564 24.7687 47.2336 25.114 47.0036C25.4592 46.7728 25.7427 46.4423 25.9636 46.0111C26.1836 45.5817 26.2858 45.158 26.2717 44.7433C26.2561 44.3279 26.1341 43.9487 25.9034 43.6025C25.6727 43.2571 25.343 42.9735 24.9121 42.7534Z" fill="#0D0E17"/>
<path id="Fill 8" fill-rule="evenodd" clip-rule="evenodd" d="M29.4929 38.125C29.4665 38.3261 29.3858 38.5132 29.2523 38.6847C29.1188 38.8561 28.9581 38.9798 28.7686 39.0548C28.5807 39.1306 28.3846 39.1546 28.1835 39.1282C27.9824 39.1018 27.7954 39.021 27.624 38.8875L25.9289 37.5669C25.7575 37.4334 25.6339 37.2718 25.5589 37.083C25.4839 36.8943 25.4592 36.6997 25.4864 36.4978C25.5127 36.2958 25.5927 36.1103 25.7262 35.938C25.8605 35.7666 26.0212 35.6429 26.2099 35.5671C26.3986 35.4929 26.5931 35.4682 26.795 35.4954C26.9969 35.5218 27.1831 35.6009 27.3545 35.7361L29.0496 37.0558C29.221 37.1894 29.3446 37.3509 29.4196 37.5397C29.4954 37.7285 29.5193 37.923 29.4929 38.125ZM30.1744 39.4035C30.4711 39.0218 30.6515 38.6253 30.715 38.2148C30.7784 37.8043 30.729 37.4078 30.5675 37.0253C30.4051 36.642 30.1332 36.3024 29.7517 36.0056L28.2066 34.8021C27.8267 34.5045 27.4295 34.3257 27.0191 34.2614C26.6087 34.1987 26.2132 34.2482 25.83 34.4097C25.4476 34.5713 25.1081 34.8442 24.8106 35.225C24.514 35.6067 24.3335 36.0032 24.2709 36.4137C24.2074 36.8242 24.2569 37.2199 24.4192 37.6032C24.5807 37.9857 24.8518 38.3253 25.2334 38.6229L26.7785 39.8256C27.16 40.1231 27.5556 40.3037 27.9659 40.3663C28.3771 40.429 28.7735 40.3795 29.1559 40.2179C29.5382 40.0564 29.8777 39.7852 30.1744 39.4035Z" fill="#0D0E17"/>
<path id="Fill 10" fill-rule="evenodd" clip-rule="evenodd" d="M36.4491 31.1698C36.3502 31.1368 36.2661 31.0799 36.1977 30.9992C36.1302 30.9176 36.089 30.8261 36.0725 30.723C36.056 30.6191 36.0651 30.5186 36.098 30.4197C36.131 30.3207 36.1887 30.2367 36.2694 30.1682C36.3502 30.0998 36.4425 30.0578 36.5455 30.0429C36.6485 30.0265 36.7499 30.0355 36.8487 30.0685C36.9476 30.1015 37.0317 30.1584 37.0993 30.2391C37.1677 30.3207 37.2097 30.4122 37.2253 30.5153C37.2418 30.6191 37.2328 30.7197 37.1998 30.8186C37.166 30.9176 37.11 31.0016 37.0284 31.0701C36.9476 31.1385 36.8553 31.1805 36.7523 31.1954C36.6493 31.2118 36.548 31.2028 36.4491 31.1698ZM37.7008 31.8681C37.9291 31.6744 38.0906 31.4428 38.1854 31.1707C38.281 30.8987 38.3057 30.6217 38.2587 30.339C38.2126 30.0554 38.0914 29.7991 37.8969 29.5682C37.7025 29.3366 37.4693 29.1742 37.199 29.0802C36.9279 28.9863 36.651 28.9632 36.3667 29.011C36.0832 29.058 35.8261 29.1783 35.5978 29.3704C35.3753 29.5584 35.2179 29.7875 35.124 30.0604C35.0292 30.3332 35.0045 30.6135 35.049 30.9003C35.0927 31.1872 35.2105 31.4444 35.4017 31.6703C35.5962 31.9019 35.8294 32.0643 36.1005 32.1566C36.3724 32.2506 36.6502 32.2737 36.9328 32.2267C37.2155 32.1805 37.4709 32.0602 37.7008 31.8681Z" fill="#0D0E17"/>
<path id="Fill 12" fill-rule="evenodd" clip-rule="evenodd" d="M34.9789 26.5249L33.8244 26.4194L33.1355 34.4698L34.2851 34.5679L34.9789 26.5249Z" fill="#0D0E17"/>
<path id="Fill 14" fill-rule="evenodd" clip-rule="evenodd" d="M30.9093 30.1683C30.9423 30.0694 30.9992 29.9853 31.0799 29.9169C31.1615 29.8493 31.253 29.8072 31.356 29.7916C31.4598 29.7751 31.5603 29.7842 31.6592 29.8171C31.7581 29.8501 31.8422 29.9078 31.9106 29.9878C31.979 30.0694 32.021 30.1609 32.0358 30.2647C32.0523 30.3678 32.0432 30.4692 32.0103 30.5681C31.9773 30.667 31.9205 30.7503 31.8397 30.8187C31.7581 30.8871 31.6666 30.9291 31.5636 30.9448C31.4598 30.9605 31.3593 30.9522 31.2604 30.9184C31.1615 30.8855 31.0774 30.8286 31.0091 30.7478C30.9407 30.6662 30.8986 30.5747 30.8838 30.4716C30.8673 30.3678 30.8764 30.2672 30.9093 30.1683ZM30.2114 31.4196C30.4067 31.6513 30.6391 31.8136 30.9102 31.9068C31.1805 32.0016 31.4582 32.0247 31.7425 31.9769C32.0251 31.9299 32.2822 31.8087 32.5105 31.6166C32.7404 31.4229 32.9011 31.1913 32.995 30.9209C33.089 30.6505 33.1137 30.3727 33.0675 30.0883C33.0222 29.8056 32.9027 29.5476 32.7083 29.3168C32.513 29.086 32.2797 28.9227 32.0078 28.8304C31.7359 28.7373 31.459 28.7142 31.1755 28.7603C30.8929 28.8073 30.6374 28.9269 30.4091 29.1198C30.1866 29.3069 30.0293 29.536 29.9345 29.8089C29.8405 30.0826 29.8158 30.362 29.8603 30.6497C29.9032 30.9366 30.021 31.1929 30.2114 31.4196Z" fill="#0D0E17"/>
<path id="Fill 16" fill-rule="evenodd" clip-rule="evenodd" d="M47.2479 19.2437L46.8416 24.0685L43.238 20.8363L42.2104 21.2444L44.6183 27.3122L45.6871 26.8869L44.2492 23.2631L47.449 26.1887L47.8527 26.0271L48.1758 21.7043L49.6137 25.3289L50.6842 24.9035L48.2755 18.8357L47.2479 19.2437Z" fill="#0D0E17"/>
<path id="Fill 18" fill-rule="evenodd" clip-rule="evenodd" d="M53.9619 19.5889C54.0435 19.232 54.205 18.941 54.4464 18.7151C54.6887 18.4893 55.0134 18.3458 55.4229 18.2857C55.8333 18.2255 56.1885 18.2642 56.4893 18.4019C56.7909 18.5396 57.0348 18.7613 57.2243 19.0671C57.413 19.3738 57.544 19.7505 57.6174 20.1981C57.6891 20.6449 57.6858 21.048 57.6034 21.4033C57.5218 21.7602 57.3603 22.0504 57.1188 22.277C56.8766 22.5029 56.5519 22.6463 56.1423 22.7065C55.7319 22.7667 55.3768 22.7288 55.076 22.5911C54.7744 22.4535 54.5297 22.2309 54.3409 21.9242C54.1514 21.6184 54.0212 21.2417 53.9479 20.7941C53.8762 20.3465 53.8795 19.945 53.9619 19.5889ZM54.5931 23.7023C55.1057 23.9067 55.6833 23.957 56.3277 23.8523C56.9713 23.7476 57.5045 23.5177 57.9264 23.1607C58.3467 22.8046 58.6433 22.3537 58.8131 21.808C58.9828 21.2631 59.0142 20.6572 58.9054 19.9879C58.7966 19.3202 58.5758 18.7539 58.2412 18.2914C57.9075 17.8282 57.4839 17.4943 56.9721 17.2899C56.4596 17.0855 55.8819 17.0343 55.2375 17.139C54.5939 17.2445 54.0608 17.4754 53.6389 17.8306C53.2186 18.1876 52.9219 18.6385 52.7522 19.1834C52.5824 19.7282 52.5511 20.3349 52.6599 21.0035C52.7687 21.6712 52.9895 22.2375 53.3241 22.7007C53.6578 23.164 54.0814 23.4979 54.5931 23.7023Z" fill="#0D0E17"/>
<path id="Fill 20" fill-rule="evenodd" clip-rule="evenodd" d="M63.465 18.8017L66.1309 23.2613L67.3809 23.3099L67.6348 16.7863L66.3847 16.7376L66.2157 21.0859L63.5499 16.6272L62.299 16.5793L62.046 23.103L63.2961 23.1509L63.465 18.8017Z" fill="#0D0E17"/>
<path id="Fill 22" fill-rule="evenodd" clip-rule="evenodd" d="M74.7821 23.5819L71.8303 22.9117L72.2011 21.2754L74.6239 21.8261L74.8785 20.7034L72.4566 20.1527L72.7656 18.7909L75.7182 19.4619L75.9728 18.3392L71.8179 17.3945L70.3726 23.7616L74.5266 24.7046L74.7821 23.5819Z" fill="#0D0E17"/>
<path id="Fill 24" fill-rule="evenodd" clip-rule="evenodd" d="M79.8898 26.6963L80.924 24.2488L84.4839 21.5508L83.1564 20.9895L80.8985 22.7024L80.5515 19.8882L79.2232 19.3276L79.7712 23.7617L78.7378 26.2091L79.8898 26.6963Z" fill="#0D0E17"/>
<path id="Fill 26" fill-rule="evenodd" clip-rule="evenodd" d="M89.7535 29.196L90.945 30.1299C91.0958 30.247 91.1989 30.3731 91.2565 30.5083C91.3142 30.6435 91.3299 30.7778 91.306 30.9122C91.2813 31.0466 91.2211 31.1743 91.1263 31.2963C91.0184 31.434 90.8956 31.5304 90.758 31.5857C90.6212 31.6417 90.4786 31.6574 90.3328 31.6335C90.1861 31.6096 90.0477 31.5461 89.9175 31.4439L88.7259 30.5099L89.7535 29.196ZM91.3233 27.1895L92.3806 28.0171C92.566 28.1622 92.6649 28.3262 92.6797 28.51C92.6929 28.6938 92.6385 28.8645 92.5157 29.0211C92.416 29.1472 92.3114 29.2305 92.1993 29.2717C92.0864 29.3121 91.9719 29.317 91.8573 29.2882C91.7411 29.2593 91.629 29.2025 91.5203 29.1159L90.463 28.2891L91.3233 27.1895ZM90.3278 32.9194C90.6624 32.9681 90.9764 32.9203 91.273 32.7752C91.568 32.6301 91.8358 32.4051 92.0756 32.0976C92.2998 31.8124 92.4209 31.4909 92.4415 31.1348C92.4555 30.8693 92.3913 30.6163 92.2462 30.3723C92.4168 30.3937 92.589 30.3912 92.7604 30.3368C93.039 30.247 93.292 30.059 93.5169 29.7705C93.6941 29.5455 93.8169 29.2809 93.8853 28.9767C93.9537 28.6733 93.9322 28.3601 93.821 28.037C93.7097 27.7138 93.4708 27.408 93.1041 27.1211L91.0481 25.5112L87.025 30.6525L89.3019 32.4356C89.6521 32.7092 89.9941 32.8708 90.3278 32.9194Z" fill="#0D0E17"/>
<path id="Fill 28" fill-rule="evenodd" clip-rule="evenodd" d="M95.715 35.016L98.4352 33.7754L96.8736 36.3308L95.715 35.016ZM93.3269 36.1049L94.6207 35.5147L96.2457 37.3587L95.5032 38.5729L96.3429 39.5258L99.9185 33.7111L98.7005 32.3303L92.4872 35.1528L93.3269 36.1049Z" fill="#0D0E17"/>
<path id="Fill 30" fill-rule="evenodd" clip-rule="evenodd" d="M102.32 45.4715L101.989 44.226C101.588 44.3208 101.221 44.3002 100.886 44.1642C100.55 44.0282 100.268 43.7652 100.038 43.3736C99.8291 43.0159 99.7327 42.6721 99.7525 42.3399C99.7706 42.0086 99.8901 41.6978 100.108 41.4076C100.328 41.1183 100.633 40.8586 101.024 40.6286C101.414 40.3995 101.789 40.2602 102.149 40.2099C102.509 40.1596 102.838 40.2074 103.137 40.3525C103.436 40.4976 103.69 40.749 103.9 41.1059C104.129 41.4967 104.222 41.8717 104.178 42.2295C104.135 42.5889 103.973 42.9203 103.693 43.2244L104.619 44.1213C105.06 43.6209 105.312 43.0563 105.375 42.429C105.438 41.8017 105.279 41.1645 104.9 40.5182C104.569 39.9552 104.162 39.5422 103.677 39.2776C103.194 39.0138 102.666 38.9 102.097 38.9388C101.528 38.9775 100.951 39.1688 100.367 39.5109C99.7838 39.8538 99.3363 40.2643 99.0249 40.7432C98.7142 41.2222 98.556 41.7374 98.5502 42.2897C98.5444 42.8411 98.7068 43.3984 99.038 43.9614C99.4171 44.6077 99.8959 45.0561 100.474 45.3075C101.052 45.5581 101.668 45.6133 102.32 45.4715Z" fill="#0D0E17"/>
<path id="Fill 32" fill-rule="evenodd" clip-rule="evenodd" d="M109.135 50.3209L105.476 48.9657L108.317 47.974L107.911 46.8101L101.749 48.9607L102.154 50.1247L104.963 49.1445L103.011 52.5811L103.525 54.0542L105.694 50.2252L109.631 51.742L109.135 50.3209Z" fill="#0D0E17"/>
<path id="Fill 34" fill-rule="evenodd" clip-rule="evenodd" d="M47.9649 81.0897V67.2427H45.9823L43.9988 68.7017V70.8021L45.9823 69.3431V81.0897H47.9649Z" fill="#0D0E17"/>
<path id="Fill 36" fill-rule="evenodd" clip-rule="evenodd" d="M56.83 72.7467H56.7913L55.1976 67.2427H53.097L55.8189 75.2361V81.0897H57.8024V75.2361L60.5234 67.2427H58.4246L56.83 72.7467Z" fill="#0D0E17"/>
<path id="Fill 38" fill-rule="evenodd" clip-rule="evenodd" d="M63.1085 79.1061V75.0414H66.53V73.1751H63.1085V69.1103H67.036V67.2424H61.1259V81.0894H67.036V79.1061H63.1085Z" fill="#0D0E17"/>
<path id="Fill 40" fill-rule="evenodd" clip-rule="evenodd" d="M69.9521 76.2476L70.9245 71.2299H70.9632L71.9348 76.2476H69.9521ZM72.8882 81.0897H74.8709L71.7798 67.2427H70.1268L67.0358 81.0897H69.0184L69.6019 78.1147H72.3039L72.8882 81.0897Z" fill="#0D0E17"/>
<path id="Fill 42" fill-rule="evenodd" clip-rule="evenodd" d="M77.4369 69.1103H78.467C79.1542 69.1103 79.6198 69.2917 79.867 69.6544C79.9832 69.8489 80.0615 70.0798 80.0994 70.3452C80.139 70.6106 80.1587 70.9181 80.1587 71.2684C80.1587 71.6188 80.139 71.9271 80.0994 72.1925C80.0615 72.4588 79.9898 72.6821 79.8868 72.8635C79.7698 73.0448 79.6075 73.1842 79.4006 73.2814C79.193 73.3787 78.9144 73.4273 78.5642 73.4273H77.4369V69.1103ZM75.4542 81.0894H77.4369V75.1774H78.6219L80.4694 81.0894H82.5691L80.4307 74.7693C81.0652 74.419 81.5094 73.959 81.7624 73.3878C82.0153 72.8182 82.1414 72.1241 82.1414 71.3072C82.1414 68.5984 80.9754 67.2424 78.6425 67.2424H75.4542V81.0894Z" fill="#0D0E17"/>
<path id="Fill 44" fill-rule="evenodd" clip-rule="evenodd" d="M35.0529 95.8189C34.6318 95.4372 34.1596 95.1866 33.6355 95.0704C33.1114 94.9525 32.5766 94.9888 32.0319 95.1775C31.4864 95.3655 30.9713 95.7274 30.4851 96.2615C30.1135 96.6712 29.8465 97.0875 29.6833 97.512C29.521 97.9357 29.4485 98.3495 29.4674 98.7551C29.4847 99.1599 29.582 99.5415 29.7591 99.8993C29.9355 100.258 30.1761 100.576 30.4802 100.851C30.945 101.274 31.4402 101.541 31.9668 101.648C32.4933 101.757 33.0117 101.719 33.5251 101.531C34.0384 101.344 34.5049 101.02 34.926 100.556C34.935 100.545 34.9729 100.502 35.038 100.426C35.1031 100.349 35.146 100.296 35.1682 100.262L33.4303 98.6826L32.7908 99.3874L33.5556 100.082C33.2746 100.292 33.0018 100.427 32.7364 100.484C32.4727 100.541 32.2206 100.532 31.9833 100.454C31.7451 100.377 31.5251 100.241 31.3207 100.048C31.0183 99.7649 30.8271 99.4624 30.748 99.1409C30.6689 98.8202 30.6895 98.4897 30.8123 98.1509C30.9334 97.8129 31.1468 97.4758 31.4517 97.1403C31.7566 96.8048 32.0739 96.5575 32.4027 96.4C32.7323 96.2426 33.0603 96.1865 33.3874 96.236C33.7154 96.2838 34.0302 96.4503 34.3326 96.733C34.6392 97.0158 34.8147 97.3315 34.8592 97.6802C34.9029 98.0297 34.8411 98.3842 34.6721 98.7452L35.7261 99.4583C36.0854 98.8211 36.2181 98.1962 36.125 97.5846C36.031 96.9721 35.6742 96.3844 35.0529 95.8189Z" fill="#0D0E17"/>
<path id="Fill 46" fill-rule="evenodd" clip-rule="evenodd" d="M42.8717 101.616L40.7852 105.11C40.6764 105.292 40.5471 105.44 40.3954 105.553C40.2446 105.668 40.0823 105.747 39.9084 105.791C39.7337 105.834 39.5566 105.843 39.3744 105.815C39.1915 105.787 39.0152 105.721 38.8438 105.619C38.6781 105.52 38.5389 105.398 38.4268 105.252C38.3164 105.106 38.2372 104.946 38.1919 104.77C38.1474 104.595 38.1384 104.415 38.1656 104.227C38.1936 104.039 38.262 103.854 38.3724 103.669L40.4589 100.174L39.381 99.5391L37.2937 103.035C37.0251 103.484 36.8883 103.932 36.8817 104.379C36.8759 104.826 36.9888 105.243 37.2228 105.63C37.4552 106.018 37.798 106.346 38.2496 106.616C38.7004 106.886 39.1519 107.031 39.6035 107.054C40.0551 107.075 40.4762 106.977 40.866 106.759C41.2566 106.543 41.5854 106.209 41.854 105.759L43.9463 102.257L42.8717 101.616Z" fill="#0D0E17"/>
<path id="Fill 48" fill-rule="evenodd" clip-rule="evenodd" d="M46.5502 107.74L48.3458 105.35L48.1958 108.34L46.5502 107.74ZM43.7814 109.404L44.973 109.839L45.8267 108.702L48.1357 109.544L48.0648 110.966L49.2572 111.4L49.6181 104.583L47.8885 103.952L43.7814 109.404Z" fill="#0D0E17"/>
<path id="Fill 50" fill-rule="evenodd" clip-rule="evenodd" d="M57.3361 108.59C57.318 108.707 57.2809 108.827 57.2257 108.951C57.1704 109.076 57.0889 109.184 56.9826 109.275C56.8763 109.366 56.737 109.421 56.5656 109.439C56.5005 109.447 56.4296 109.448 56.3546 109.442C56.2788 109.436 56.2096 109.428 56.1478 109.418L54.6975 109.184L55.018 107.197L56.4675 107.431C56.5302 107.44 56.5977 107.455 56.6719 107.473C56.7452 107.49 56.812 107.514 56.8721 107.542C57.0287 107.612 57.1441 107.709 57.2158 107.829C57.2883 107.95 57.3311 108.077 57.3451 108.213C57.3575 108.348 57.355 108.474 57.3361 108.59ZM58.1206 106.958C57.9055 106.724 57.6105 106.547 57.2355 106.425C57.154 106.397 57.0617 106.372 56.9562 106.35C56.8507 106.328 56.7675 106.313 56.704 106.303L53.9847 105.863L52.9447 112.309L54.1618 112.505L54.5137 110.321L55.8726 110.54L56.578 112.896L57.9566 113.117L57.1754 110.533C57.4753 110.455 57.7333 110.318 57.9368 110.109C58.2664 109.769 58.4757 109.329 58.5623 108.788C58.6208 108.427 58.6158 108.091 58.5466 107.777C58.4774 107.465 58.3357 107.192 58.1206 106.958Z" fill="#0D0E17"/>
<path id="Fill 52" fill-rule="evenodd" clip-rule="evenodd" d="M63.4368 110.806L64.2287 107.921L65.1879 110.758L63.4368 110.806ZM63.2902 106.791L61.4723 113.371L62.7413 113.336L63.1179 111.966L65.5744 111.9L66.0301 113.248L67.2992 113.214L65.1303 106.742L63.2902 106.791Z" fill="#0D0E17"/>
<path id="Fill 54" fill-rule="evenodd" clip-rule="evenodd" d="M73.6345 105.458L74.5863 109.705L70.8665 106.08L69.6453 106.353L71.0733 112.723L72.2938 112.449L71.342 108.203L75.0618 111.829L76.283 111.555L74.8541 105.184L73.6345 105.458Z" fill="#0D0E17"/>
<path id="Fill 56" fill-rule="evenodd" clip-rule="evenodd" d="M82.5904 103.339L82.1314 102.283L77.2258 104.412L77.684 105.468L79.5719 104.65L81.7112 109.583L82.8418 109.092L80.7025 104.159L82.5904 103.339Z" fill="#0D0E17"/>
<path id="Fill 58" fill-rule="evenodd" clip-rule="evenodd" d="M88.3033 104.849L87.3804 103.449L89.4545 102.082L88.8216 101.12L86.7467 102.487L85.9795 101.321L88.5077 99.6544L87.874 98.6924L84.3165 101.038L87.9069 106.489L91.4644 104.145L90.8307 103.183L88.3033 104.849Z" fill="#0D0E17"/>
<path id="Fill 60" fill-rule="evenodd" clip-rule="evenodd" d="M94.7074 99.9742L93.5603 98.7501L95.374 97.0512L94.5871 96.2112L92.7741 97.9093L91.8199 96.8896L94.03 94.8197L93.243 93.9797L90.1331 96.8921L94.5945 101.657L97.7045 98.7443L96.9175 97.9035L94.7074 99.9742Z" fill="#0D0E17"/>
<path id="Fill 62" fill-rule="evenodd" clip-rule="evenodd" d="M62.8847 62.7759C63.4624 62.7759 63.9305 62.2739 63.9305 61.6532V45.311C63.9305 44.6919 63.4624 44.1882 62.8847 44.1882C62.3087 44.1882 61.8398 44.6919 61.8398 45.311V61.6532C61.8398 62.2739 62.3087 62.7759 62.8847 62.7759Z" fill="#0D0E17"/>
<path id="Fill 64" fill-rule="evenodd" clip-rule="evenodd" d="M57.2686 51.9098V57.3017C57.2686 57.9225 57.7655 58.4253 58.3786 58.4253C58.9917 58.4253 59.4869 57.9225 59.4869 57.3017V51.9098C59.4869 51.2891 58.9917 50.7871 58.3786 50.7871C57.7655 50.7871 57.2686 51.2891 57.2686 51.9098Z" fill="#0D0E17"/>
<path id="Fill 66" fill-rule="evenodd" clip-rule="evenodd" d="M66.589 49.2139V58.6499C66.589 59.2706 67.0859 59.7743 67.699 59.7743C68.3121 59.7743 68.8082 59.2706 68.8082 58.6499V49.2139C68.8082 48.5932 68.3121 48.0903 67.699 48.0903C67.0859 48.0903 66.589 48.5932 66.589 49.2139Z" fill="#0D0E17"/>
</g>
</g>
</g>
</svg>
