<svg width="54" height="48" viewBox="0 0 54 48" fill="none" xmlns="http://www.w3.org/2000/svg">
<g id="Group">
<path id="Shape" fill-rule="evenodd" clip-rule="evenodd" d="M35.5109 10C35.5109 5.58 31.5912 2 26.7518 2C21.9124 2 17.9927 5.58 17.9927 10C17.9927 14.42 21.9124 18 26.7518 18C31.5912 18 35.5109 14.42 35.5109 10ZM40.6876 33.272C44.108 30.148 44.108 25.082 40.6876 21.96V21.958C37.2672 18.834 31.7204 18.834 28.3 21.958L26.7496 23.372L25.2037 21.958C21.7832 18.834 16.2365 18.834 12.8161 21.958C9.39562 25.082 9.39562 30.148 12.8161 33.272L25.2037 44.586C26.0577 45.366 27.446 45.366 28.3 44.586L40.6876 33.272Z" fill="#ED6A32"/>
</g>
</svg>
