<svg width="53" height="48" viewBox="0 0 53 48" fill="none" xmlns="http://www.w3.org/2000/svg">
<g id="Group">
<path id="Shape" fill-rule="evenodd" clip-rule="evenodd" d="M25.1993 3.46795C15.9707 12.6792 9.53185 23.9294 6.51831 36.1079C11.2691 37.0214 16.0886 37.6057 20.9358 37.8559L25.5103 46.2119C25.6959 46.5503 26.0748 46.7639 26.4891 46.7639C26.9035 46.7639 27.2823 46.5503 27.4679 46.2119L32.0424 37.8559C36.9563 37.6019 41.7716 37.0099 46.4599 36.1079C43.5488 24.3347 37.4349 13.4217 28.6833 4.37795C28.4446 4.13195 28.1424 3.82795 27.7789 3.46795C27.4471 3.1383 26.9793 2.95068 26.4891 2.95068C25.9989 2.95068 25.5311 3.1383 25.1993 3.46795ZM33.0584 24C33.0584 27.3137 30.1172 30 26.4891 30C22.8609 30 19.9197 27.3137 19.9197 24C19.9197 20.6863 22.8609 18 26.4891 18C30.1172 18 33.0584 20.6863 33.0584 24Z" fill="#ED6A32"/>
</g>
</svg>
