<svg width="54" height="48" viewBox="0 0 54 48" fill="none" xmlns="http://www.w3.org/2000/svg">
<g id="Group">
<path id="Path" d="M29.3357 16V32C29.3357 35.3137 26.3945 38 22.7664 38H18.0146C16.948 40.7563 13.8624 42.4098 10.7077 41.9156C7.55307 41.4215 5.24707 38.9233 5.24707 36C5.24707 33.0767 7.55307 30.5785 10.7077 30.0844C13.8624 29.5902 16.948 31.2437 18.0146 34H22.7664C23.9758 34 24.9562 33.1046 24.9562 32V16C24.9562 12.6863 27.8974 10 31.5255 10H38.0949V4L49.0438 12L38.0949 20V14H31.5255C30.3161 14 29.3357 14.8954 29.3357 16Z" fill="#ED6A32"/>
</g>
</svg>
