<svg width="224" height="224" viewBox="0 0 224 224" fill="none" xmlns="http://www.w3.org/2000/svg">
<g id="Group 70">
<g id="Group 69">
<path id="Fill 1" fill-rule="evenodd" clip-rule="evenodd" d="M92.4622 13.7796L69.1391 8.5244L56.3641 28.7341L32.8044 32.8029L28.7341 56.3626L8.52584 69.1377L13.7811 92.4622L0 111.999L13.7811 131.536L8.52584 154.859L28.7341 167.636L32.8044 191.196L56.3641 195.266L69.1391 215.474L92.4622 210.219L112.001 224L131.538 210.219L154.861 215.474L167.639 195.266L191.196 191.196L195.267 167.636L215.476 154.859L210.22 131.536L224 111.999L210.22 92.4622L215.476 69.1377L195.267 56.3626L191.196 32.8029L167.639 28.7341L154.861 8.5244L131.538 13.7796L112.001 0L92.4622 13.7796Z" fill="#FFE947"/>
<g id="Group 68">
<path id="Fill 2" fill-rule="evenodd" clip-rule="evenodd" d="M168.12 113.712C168.12 81.8023 142.26 55.9321 110.357 55.9321C78.4579 55.9321 52.5977 81.8023 52.5977 113.712C52.5977 145.624 78.4579 171.494 110.357 171.494C142.26 171.494 168.12 145.624 168.12 113.712Z" fill="white"/>
<path id="Fill 4" fill-rule="evenodd" clip-rule="evenodd" d="M29.5925 88.6111L30.1694 91.0433L32.4392 91.7617L31.8307 89.3208L40.4803 92.0646L41.1466 89.9628L30.2588 86.5093L29.5925 88.6111Z" fill="#0D0E17"/>
<path id="Fill 6" fill-rule="evenodd" clip-rule="evenodd" d="M43.615 79.5881C43.4405 79.9271 43.204 80.1926 42.904 80.383C42.604 80.5749 42.2767 80.6802 41.9219 80.7004C41.5672 80.7206 41.2211 80.6427 40.8807 80.4696L37.5351 78.7558C37.1962 78.5827 36.9308 78.3461 36.7405 78.046C36.5501 77.746 36.4434 77.4185 36.4247 77.0637C36.403 76.7088 36.4809 76.3611 36.654 76.0221C36.827 75.6831 37.0635 75.4177 37.3635 75.2273C37.6634 75.0368 37.9922 74.9301 38.347 74.9099C38.7017 74.8897 39.0478 74.9662 39.3853 75.1407L42.7338 76.8545C43.0713 77.029 43.3366 77.2656 43.527 77.5657C43.7188 77.8657 43.8255 78.1917 43.8442 78.5466C43.8644 78.9015 43.788 79.2491 43.615 79.5881ZM43.5962 74.8188L40.5461 73.2551C39.7948 72.8714 39.055 72.6911 38.3282 72.7156C37.6014 72.743 36.9366 72.9565 36.3309 73.3619C35.7267 73.7643 35.232 74.3428 34.847 75.0958C34.4605 75.8488 34.2802 76.5889 34.3076 77.3159C34.3322 78.043 34.5485 78.708 34.9508 79.3124C35.3532 79.9183 35.9329 80.4117 36.6842 80.7983L39.7357 82.3606C40.4885 82.7457 41.2283 82.9261 41.9551 82.9001C42.6804 82.8741 43.3452 82.6592 43.9495 82.2567C44.5537 81.8528 45.0498 81.2743 45.4363 80.5199C45.8213 79.7683 46.0001 79.0268 45.9756 78.3012C45.9482 77.5741 45.7348 76.9106 45.331 76.3047C44.9272 75.7003 44.3504 75.204 43.5962 74.8188Z" fill="#0D0E17"/>
<path id="Fill 8" fill-rule="evenodd" clip-rule="evenodd" d="M51.6125 66.7187C51.5663 67.0707 51.425 67.3982 51.1914 67.6982C50.9578 67.9983 50.6766 68.2147 50.3449 68.3459C50.0161 68.4786 49.6729 68.5205 49.321 68.4743C48.9691 68.4282 48.6418 68.2868 48.3418 68.0531L45.3754 65.7421C45.0755 65.5084 44.8592 65.2257 44.7279 64.8953C44.5967 64.565 44.5534 64.2245 44.601 63.8711C44.6472 63.5177 44.7871 63.1931 45.0207 62.8916C45.2557 62.5915 45.5369 62.3751 45.8672 62.2424C46.1974 62.1126 46.5378 62.0693 46.8911 62.1169C47.2444 62.1631 47.5703 62.3016 47.8702 62.5382L50.8366 64.8477C51.1366 65.0814 51.3529 65.3641 51.4841 65.6945C51.6168 66.0248 51.6586 66.3653 51.6125 66.7187ZM52.8052 68.9563C53.3244 68.2884 53.6402 67.5945 53.7512 66.8761C53.8623 66.1577 53.7757 65.4638 53.4931 64.7945C53.209 64.1237 52.7331 63.5294 52.0654 63.01L49.3615 60.9039C48.6967 60.3831 48.0016 60.0701 47.2834 59.9576C46.5653 59.8479 45.8731 59.9345 45.2025 60.2172C44.5334 60.5 43.9392 60.9775 43.4186 61.6439C42.8995 62.3118 42.5837 63.0057 42.4741 63.7241C42.363 64.4425 42.4495 65.1349 42.7336 65.8057C43.0163 66.4751 43.4907 67.0694 44.1584 67.5902L46.8623 69.6949C47.53 70.2157 48.2222 70.5316 48.9404 70.6412C49.66 70.7509 50.3537 70.6643 51.0228 70.3816C51.6919 70.0988 52.2861 69.6242 52.8052 68.9563Z" fill="#0D0E17"/>
<path id="Fill 10" fill-rule="evenodd" clip-rule="evenodd" d="M63.7859 54.5476C63.6128 54.4899 63.4657 54.3903 63.346 54.249C63.2278 54.1061 63.1557 53.946 63.1268 53.7657C63.098 53.5839 63.1139 53.4079 63.1716 53.2348C63.2292 53.0617 63.3302 52.9146 63.4715 52.7949C63.6128 52.6751 63.7743 52.6015 63.9546 52.5756C64.1349 52.5467 64.3122 52.5626 64.4853 52.6203C64.6584 52.678 64.8054 52.7775 64.9237 52.9189C65.0434 53.0617 65.1169 53.2219 65.1443 53.4022C65.1732 53.5839 65.1573 53.7599 65.0996 53.933C65.0405 54.1061 64.9424 54.2533 64.7997 54.373C64.6584 54.4928 64.4968 54.5663 64.3166 54.5923C64.1363 54.6211 63.9589 54.6053 63.7859 54.5476ZM65.9765 55.7693C66.376 55.4303 66.6586 55.0249 66.8244 54.5489C66.9917 54.0728 67.035 53.5881 66.9528 53.0933C66.872 52.5971 66.66 52.1485 66.3197 51.7445C65.9794 51.3392 65.5713 51.055 65.0983 50.8905C64.6238 50.7261 64.1393 50.6857 63.6417 50.7694C63.1457 50.8516 62.6957 51.0622 62.2963 51.3983C61.9069 51.7272 61.6315 52.1283 61.4671 52.6058C61.3012 53.0832 61.258 53.5737 61.3358 54.0757C61.4123 54.5777 61.6185 55.0278 61.9531 55.4231C62.2934 55.8285 62.7015 56.1126 63.1759 56.2742C63.6518 56.4387 64.1378 56.4791 64.6325 56.3968C65.1271 56.316 65.5742 56.1054 65.9765 55.7693Z" fill="#0D0E17"/>
<path id="Fill 12" fill-rule="evenodd" clip-rule="evenodd" d="M61.213 46.419L59.1927 46.2344L57.9871 60.3225L59.9988 60.4941L61.213 46.419Z" fill="#0D0E17"/>
<path id="Fill 14" fill-rule="evenodd" clip-rule="evenodd" d="M54.0912 52.7949C54.1489 52.6218 54.2484 52.4746 54.3897 52.3549C54.5325 52.2366 54.6926 52.163 54.8728 52.1356C55.0545 52.1068 55.2305 52.1227 55.4035 52.1804C55.5766 52.2381 55.7237 52.339 55.8434 52.479C55.9631 52.6218 56.0366 52.7819 56.0626 52.9637C56.0914 53.144 56.0756 53.3214 56.0179 53.4945C55.9602 53.6676 55.8607 53.8133 55.7194 53.9331C55.5766 54.0528 55.4165 54.1264 55.2363 54.1538C55.0545 54.1812 54.8786 54.1668 54.7056 54.1076C54.5325 54.0499 54.3854 53.9504 54.2657 53.809C54.146 53.6662 54.0725 53.5061 54.0465 53.3258C54.0177 53.144 54.0335 52.968 54.0912 52.7949ZM52.8699 54.9846C53.2117 55.3899 53.6183 55.6741 54.0928 55.8371C54.5658 56.003 55.0518 56.0434 55.5493 55.9597C56.0439 55.8775 56.4939 55.6655 56.8933 55.3293C57.2957 54.9903 57.5769 54.585 57.7413 54.1118C57.9057 53.6387 57.9489 53.1525 57.8682 52.6548C57.7889 52.16 57.5798 51.7085 57.2394 51.3046C56.8977 50.9007 56.4896 50.615 56.0137 50.4535C55.5378 50.2905 55.0532 50.2501 54.5571 50.3309C54.0625 50.4131 53.6155 50.6223 53.216 50.9598C52.8266 51.2873 52.5512 51.6883 52.3854 52.1658C52.221 52.6447 52.1777 53.1338 52.2556 53.6372C52.3306 54.1392 52.5368 54.5879 52.8699 54.9846Z" fill="#0D0E17"/>
<path id="Fill 16" fill-rule="evenodd" clip-rule="evenodd" d="M82.6837 33.6765L81.9727 42.1198L75.6665 36.4635L73.8682 37.1776L78.082 47.7963L79.9524 47.052L77.4359 40.7104L83.0356 45.8301L83.7422 45.5474L84.3075 37.9825L86.8239 44.3255L88.6972 43.5811L84.482 32.9624L82.6837 33.6765Z" fill="#0D0E17"/>
<path id="Fill 18" fill-rule="evenodd" clip-rule="evenodd" d="M94.4333 34.2814C94.5761 33.6567 94.8587 33.1475 95.2812 32.7523C95.7052 32.357 96.2734 32.106 96.9901 32.0007C97.7083 31.8954 98.3298 31.9632 98.8562 32.2041C99.384 32.445 99.8109 32.833 100.143 33.3682C100.473 33.9049 100.702 34.5641 100.83 35.3474C100.956 36.1293 100.95 36.8347 100.806 37.4565C100.663 38.0811 100.38 38.5889 99.9579 38.9856C99.534 39.3809 98.9658 39.6319 98.2491 39.7372C97.5309 39.8425 96.9094 39.7761 96.383 39.5352C95.8552 39.2943 95.4269 38.9048 95.0966 38.3682C94.765 37.833 94.5371 37.1737 94.4088 36.3904C94.2833 35.6071 94.2891 34.9046 94.4333 34.2814ZM95.5379 41.4796C96.4349 41.8373 97.4458 41.9253 98.5735 41.7421C99.6998 41.5589 100.633 41.1564 101.371 40.5318C102.107 39.9086 102.626 39.1195 102.923 38.1646C103.22 37.211 103.275 36.1507 103.084 34.9794C102.894 33.8109 102.508 32.8198 101.922 32.0106C101.338 31.1998 100.597 30.6156 99.7012 30.2579C98.8042 29.9001 97.7933 29.8107 96.6656 29.9939C95.5393 30.1785 94.6063 30.5824 93.8679 31.2042C93.1325 31.8288 92.6133 32.6179 92.3162 33.5714C92.0192 34.525 91.9644 35.5867 92.1547 36.7566C92.3451 37.9251 92.7316 38.9161 93.3171 39.7269C93.9011 40.5376 94.6423 41.1218 95.5379 41.4796Z" fill="#0D0E17"/>
<path id="Fill 20" fill-rule="evenodd" clip-rule="evenodd" d="M111.064 32.9033L115.729 40.7076L117.917 40.7927L118.361 29.3762L116.173 29.2911L115.878 36.9007L111.212 29.0978L109.023 29.0142L108.581 40.4306L110.768 40.5143L111.064 32.9033Z" fill="#0D0E17"/>
<path id="Fill 22" fill-rule="evenodd" clip-rule="evenodd" d="M130.868 41.2683L125.703 40.0955L126.352 37.232L130.592 38.1957L131.037 36.2309L126.799 35.2673L127.34 32.8841L132.507 34.0584L132.952 32.0936L125.681 30.4404L123.152 41.5828L130.421 43.2331L130.868 41.2683Z" fill="#0D0E17"/>
<path id="Fill 24" fill-rule="evenodd" clip-rule="evenodd" d="M139.807 46.7188L141.617 42.4359L147.847 37.7143L145.524 36.7319L141.572 39.7296L140.965 34.8047L138.64 33.8237L139.599 41.5833L137.791 45.8663L139.807 46.7188Z" fill="#0D0E17"/>
<path id="Fill 26" fill-rule="evenodd" clip-rule="evenodd" d="M157.068 51.0933L159.154 52.7277C159.418 52.9326 159.598 53.1533 159.699 53.3899C159.8 53.6264 159.827 53.8616 159.785 54.0967C159.742 54.3319 159.637 54.5555 159.471 54.769C159.282 55.0099 159.067 55.1786 158.826 55.2753C158.587 55.3734 158.338 55.4008 158.082 55.359C157.826 55.3171 157.583 55.206 157.355 55.0272L155.27 53.3927L157.068 51.0933ZM159.816 47.5821L161.666 49.0304C161.99 49.2843 162.163 49.5714 162.189 49.8931C162.212 50.2148 162.117 50.5134 161.902 50.7875C161.728 51.0082 161.545 51.1539 161.349 51.226C161.151 51.2967 160.951 51.3053 160.75 51.2549C160.547 51.2044 160.351 51.1048 160.16 50.9534L158.31 49.5065L159.816 47.5821ZM158.074 57.6094C158.659 57.6945 159.209 57.6108 159.728 57.3569C160.244 57.103 160.713 56.7092 161.132 56.1711C161.525 55.672 161.737 55.1094 161.773 54.4862C161.797 54.0217 161.685 53.5788 161.431 53.1518C161.729 53.1893 162.031 53.185 162.331 53.0898C162.818 52.9326 163.261 52.6037 163.655 52.0988C163.965 51.7049 164.179 51.2419 164.299 50.7096C164.419 50.1787 164.381 49.6305 164.187 49.065C163.992 48.4996 163.574 47.9644 162.932 47.4624L159.334 44.645L152.294 53.6423L156.278 56.7626C156.891 57.2415 157.49 57.5243 158.074 57.6094Z" fill="#0D0E17"/>
<path id="Fill 28" fill-rule="evenodd" clip-rule="evenodd" d="M167.501 61.2785L172.262 59.1074L169.529 63.5794L167.501 61.2785ZM163.322 63.1841L165.586 62.1512L168.43 65.3783L167.131 67.5032L168.6 69.1708L174.857 58.9949L172.726 56.5786L161.853 61.518L163.322 63.1841Z" fill="#0D0E17"/>
<path id="Fill 30" fill-rule="evenodd" clip-rule="evenodd" d="M179.06 79.5756L178.481 77.3959C177.78 77.5618 177.137 77.5258 176.55 77.2877C175.963 77.0497 175.468 76.5895 175.066 75.9043C174.701 75.2782 174.532 74.6767 174.567 74.0953C174.599 73.5154 174.808 72.9716 175.19 72.4638C175.574 71.9574 176.107 71.503 176.792 71.1006C177.474 70.6995 178.13 70.4557 178.761 70.3677C179.391 70.2797 179.966 70.3634 180.49 70.6173C181.013 70.8712 181.457 71.3112 181.825 71.9358C182.226 72.6196 182.389 73.276 182.312 73.902C182.236 74.531 181.953 75.1109 181.463 75.6432L183.082 77.2127C183.855 76.3371 184.297 75.3489 184.406 74.2511C184.516 73.1533 184.239 72.0382 183.576 70.9073C182.996 69.922 182.284 69.1993 181.436 68.7362C180.589 68.2746 179.666 68.0755 178.67 68.1433C177.673 68.2111 176.664 68.5458 175.643 69.1444C174.622 69.7445 173.839 70.4629 173.294 71.3011C172.75 72.1392 172.473 73.0408 172.463 74.0073C172.453 74.9724 172.737 75.9476 173.317 76.9329C173.98 78.0638 174.818 78.8486 175.83 79.2886C176.841 79.7271 177.918 79.8238 179.06 79.5756Z" fill="#0D0E17"/>
<path id="Fill 32" fill-rule="evenodd" clip-rule="evenodd" d="M190.986 88.0619L184.583 85.6903L189.555 83.9549L188.844 81.918L178.06 85.6816L178.77 87.7185L183.684 86.0033L180.27 92.0174L181.168 94.5952L184.964 87.8945L191.854 90.5488L190.986 88.0619Z" fill="#0D0E17"/>
<path id="Fill 34" fill-rule="evenodd" clip-rule="evenodd" d="M83.9386 141.907V117.675H80.4689L76.9978 120.228V123.904L80.4689 121.35V141.907H83.9386Z" fill="#0D0E17"/>
<path id="Fill 36" fill-rule="evenodd" clip-rule="evenodd" d="M99.4524 127.307H99.3846L96.5956 117.675H92.9197L97.6829 131.663V141.907H101.154V131.663L105.916 117.675H102.243L99.4524 127.307Z" fill="#0D0E17"/>
<path id="Fill 38" fill-rule="evenodd" clip-rule="evenodd" d="M110.44 138.436V131.323H116.427V128.057H110.44V120.944H117.313V117.675H106.97V141.907H117.313V138.436H110.44Z" fill="#0D0E17"/>
<path id="Fill 40" fill-rule="evenodd" clip-rule="evenodd" d="M122.416 133.433L124.118 124.652H124.185L125.886 133.433H122.416ZM127.554 141.907H131.024L125.615 117.675H122.722L117.312 141.907H120.782L121.803 136.701H126.532L127.554 141.907Z" fill="#0D0E17"/>
<path id="Fill 42" fill-rule="evenodd" clip-rule="evenodd" d="M135.515 120.944H137.317C138.52 120.944 139.335 121.261 139.767 121.896C139.971 122.236 140.108 122.64 140.174 123.105C140.243 123.569 140.278 124.107 140.278 124.72C140.278 125.334 140.243 125.873 140.174 126.338C140.108 126.804 139.982 127.194 139.802 127.512C139.597 127.829 139.313 128.073 138.951 128.243C138.588 128.413 138.1 128.499 137.487 128.499H135.515V120.944ZM132.045 141.907H135.515V131.561H137.588L140.822 141.907H144.496L140.754 130.847C141.864 130.234 142.641 129.429 143.084 128.429C143.527 127.432 143.748 126.218 143.748 124.788C143.748 120.048 141.707 117.675 137.624 117.675H132.045V141.907Z" fill="#0D0E17"/>
<path id="Fill 44" fill-rule="evenodd" clip-rule="evenodd" d="M61.3424 167.683C60.6055 167.015 59.7792 166.577 58.862 166.373C57.9448 166.167 57.0089 166.231 56.0557 166.561C55.101 166.89 54.1997 167.523 53.3489 168.458C52.6985 169.175 52.2313 169.903 51.9457 170.646C51.6616 171.388 51.5347 172.112 51.5679 172.822C51.5982 173.53 51.7684 174.198 52.0784 174.824C52.387 175.451 52.8081 176.008 53.3402 176.49C54.1536 177.23 55.0203 177.696 55.9418 177.885C56.8633 178.075 57.7703 178.008 58.6688 177.68C59.5672 177.353 60.3834 176.784 61.1203 175.974C61.1362 175.953 61.2025 175.878 61.3165 175.746C61.4304 175.612 61.5054 175.518 61.5443 175.459L58.5029 172.695L57.3839 173.928L58.7221 175.144C58.2304 175.512 57.753 175.747 57.2887 175.847C56.8272 175.948 56.3859 175.93 55.9706 175.795C55.5538 175.659 55.1688 175.423 54.8112 175.084C54.2819 174.589 53.9474 174.059 53.8089 173.497C53.6705 172.936 53.7065 172.357 53.9214 171.764C54.1334 171.173 54.5069 170.583 55.0405 169.996C55.574 169.409 56.1292 168.976 56.7046 168.7C57.2815 168.425 57.8554 168.327 58.4279 168.413C59.0019 168.497 59.5528 168.788 60.082 169.283C60.6185 169.778 60.9256 170.33 61.0035 170.941C61.08 171.552 60.9718 172.172 60.6762 172.804L62.5206 174.052C63.1494 172.937 63.3815 171.844 63.2186 170.773C63.0542 169.701 62.4298 168.673 61.3424 167.683Z" fill="#0D0E17"/>
<path id="Fill 46" fill-rule="evenodd" clip-rule="evenodd" d="M75.0254 177.828L71.374 183.943C71.1837 184.262 70.9573 184.521 70.6919 184.719C70.428 184.919 70.1439 185.058 69.8397 185.134C69.5339 185.211 69.2239 185.225 68.9052 185.178C68.585 185.129 68.2764 185.013 67.9765 184.834C67.6866 184.661 67.4429 184.448 67.2468 184.191C67.0535 183.936 66.9151 183.656 66.8358 183.348C66.7579 183.043 66.742 182.727 66.7896 182.398C66.8387 182.069 66.9584 181.744 67.1516 181.421L70.803 175.305L68.9167 174.194L65.2639 180.312C64.7938 181.098 64.5544 181.881 64.5428 182.663C64.5328 183.446 64.7303 184.175 65.1399 184.853C65.5465 185.532 66.1465 186.107 66.9367 186.578C67.7255 187.051 68.5158 187.305 69.3061 187.344C70.0964 187.382 70.8333 187.21 71.5154 186.829C72.1989 186.45 72.7743 185.866 73.2444 185.079L76.9059 178.95L75.0254 177.828Z" fill="#0D0E17"/>
<path id="Fill 48" fill-rule="evenodd" clip-rule="evenodd" d="M81.4629 188.546L84.6052 184.364L84.3428 189.596L81.4629 188.546ZM76.6174 191.458L78.7027 192.218L80.1967 190.229L84.2375 191.702L84.1134 194.19L86.2001 194.951L86.8318 183.021L83.8048 181.917L76.6174 191.458Z" fill="#0D0E17"/>
<path id="Fill 50" fill-rule="evenodd" clip-rule="evenodd" d="M100.338 190.033C100.307 190.238 100.242 190.447 100.145 190.665C100.048 190.883 99.9056 191.072 99.7196 191.232C99.5335 191.391 99.2898 191.487 98.9899 191.519C98.876 191.534 98.7519 191.535 98.6207 191.523C98.488 191.513 98.3669 191.5 98.2587 191.482L95.7207 191.073L96.2816 187.595L98.8183 188.005C98.9279 188.021 99.0461 188.047 99.1759 188.079C99.3043 188.109 99.4211 188.149 99.5263 188.2C99.8003 188.322 100.002 188.491 100.128 188.702C100.255 188.912 100.33 189.136 100.354 189.373C100.376 189.609 100.371 189.83 100.338 190.033ZM101.711 187.177C101.335 186.767 100.818 186.457 100.162 186.244C100.02 186.195 99.858 186.151 99.6734 186.112C99.4888 186.075 99.3432 186.047 99.2322 186.03L94.4732 185.261L92.6533 196.542L94.7833 196.884L95.3991 193.063L97.7771 193.445L99.0115 197.568L101.424 197.956L100.057 193.433C100.582 193.296 101.033 193.057 101.39 192.69C101.966 192.096 102.333 191.326 102.484 190.379C102.586 189.748 102.578 189.159 102.457 188.611C102.336 188.064 102.087 187.587 101.711 187.177Z" fill="#0D0E17"/>
<path id="Fill 52" fill-rule="evenodd" clip-rule="evenodd" d="M111.014 193.91L112.4 188.863L114.079 193.827L111.014 193.91ZM110.758 186.885L107.576 198.399L109.797 198.339L110.456 195.941L114.755 195.826L115.553 198.185L117.773 198.125L113.978 186.798L110.758 186.885Z" fill="#0D0E17"/>
<path id="Fill 54" fill-rule="evenodd" clip-rule="evenodd" d="M128.86 184.552L130.526 191.984L124.016 185.639L121.879 186.118L124.378 197.265L126.514 196.786L124.848 189.355L131.358 195.701L133.495 195.221L130.995 184.073L128.86 184.552Z" fill="#0D0E17"/>
<path id="Fill 56" fill-rule="evenodd" clip-rule="evenodd" d="M144.533 180.844L143.73 178.996L135.145 182.722L135.947 184.57L139.251 183.138L142.995 191.77L144.973 190.912L141.229 182.278L144.533 180.844Z" fill="#0D0E17"/>
<path id="Fill 58" fill-rule="evenodd" clip-rule="evenodd" d="M154.531 183.486L152.916 181.036L156.545 178.644L155.438 176.96L151.807 179.352L150.464 177.312L154.888 174.395L153.779 172.712L147.554 176.816L153.837 186.356L160.063 182.254L158.954 180.571L154.531 183.486Z" fill="#0D0E17"/>
<path id="Fill 60" fill-rule="evenodd" clip-rule="evenodd" d="M165.738 174.955L163.731 172.813L166.905 169.84L165.527 168.37L162.355 171.342L160.685 169.557L164.553 165.935L163.175 164.465L157.733 169.561L165.54 177.901L170.983 172.803L169.606 171.331L165.738 174.955Z" fill="#0D0E17"/>
<path id="Fill 62" fill-rule="evenodd" clip-rule="evenodd" d="M110.048 109.858C111.059 109.858 111.878 108.979 111.878 107.893V79.2944C111.878 78.211 111.059 77.3296 110.048 77.3296C109.04 77.3296 108.22 78.211 108.22 79.2944V107.893C108.22 108.979 109.04 109.858 110.048 109.858Z" fill="#0D0E17"/>
<path id="Fill 64" fill-rule="evenodd" clip-rule="evenodd" d="M100.22 90.8427V100.279C100.22 101.365 101.09 102.245 102.162 102.245C103.235 102.245 104.102 101.365 104.102 100.279V90.8427C104.102 89.7565 103.235 88.8779 102.162 88.8779C101.09 88.8779 100.22 89.7565 100.22 90.8427Z" fill="#0D0E17"/>
<path id="Fill 66" fill-rule="evenodd" clip-rule="evenodd" d="M116.531 86.1244V102.637C116.531 103.724 117.4 104.605 118.473 104.605C119.546 104.605 120.414 103.724 120.414 102.637V86.1244C120.414 85.0382 119.546 84.1582 118.473 84.1582C117.4 84.1582 116.531 85.0382 116.531 86.1244Z" fill="#0D0E17"/>
</g>
</g>
</g>
</svg>
