<svg width="43" height="39" viewBox="0 0 43 39" fill="none" xmlns="http://www.w3.org/2000/svg">
<g clip-path="url(#clip0_701_2485)">
<path d="M14.0654 26.2119H9.69618V21.6141H14.2112L13.4395 22.6046H10.8418V23.4668H13.367V24.3388H10.8418V25.2474H13.4815L14.7416 23.8614L13.6273 22.6087L13.4395 22.6038L14.2112 21.6133L15.4812 23.0511L16.7932 21.6246H17.8449V22.0647L16.1994 23.8614L17.8449 25.78V21.6238H20.8124C21.3749 21.6238 22.1977 21.8796 22.1977 23.03C22.1977 24.6409 21.1147 24.662 20.5208 24.662H18.9799V23.7185H20.4064C20.8758 23.7185 21.0422 23.4522 21.0422 23.1429C21.0422 22.9164 20.8906 22.6135 20.4121 22.6135H18.9799V26.2225H16.7825L15.4392 24.692L14.0654 26.2119ZM27.6607 21.6141H31.4048V22.6046H28.8063V23.4668H31.3315V24.3388H28.8063V25.2482H31.4048V26.2119H27.6607V21.6141ZM23.8861 22.6135V26.2225H22.7388V21.6238H25.7178C26.2803 21.6238 27.0924 21.8698 27.0924 22.8555C27.0924 23.4092 26.926 23.8208 26.3009 24.1286C26.8429 24.1886 27.0512 24.5378 27.0512 25.2782L27.0924 26.2217H25.9781L25.9468 25.3797C25.9361 24.99 25.7804 24.6011 25.3834 24.6011H23.8861V23.656H25.3118C25.7804 23.656 25.9468 23.4514 25.9468 23.1421C25.9468 22.9156 25.7952 22.6127 25.3167 22.6127H23.8861V22.6135ZM38.5949 23.4051C40.0033 23.4766 40.121 24.1691 40.121 24.9088C40.121 25.771 39.4029 26.2346 38.6525 26.2346H36.2468V25.2482H38.1213C38.4392 25.2482 38.9128 25.2482 38.9128 24.8073C38.9128 24.5962 38.8296 24.4631 38.4911 24.4281C38.3404 24.4062 37.7828 24.3762 37.6996 24.3746C36.428 24.3413 36.1323 23.7177 36.1323 22.9586C36.1323 22.0963 36.7467 21.6254 37.4962 21.6254H39.902V22.6095H38.1419C37.7416 22.6143 37.3092 22.5632 37.3092 23.0089C37.3092 23.2931 37.5226 23.3499 37.7935 23.3735C37.8874 23.3735 38.5117 23.4068 38.5949 23.4051ZM34.3047 23.4051C35.7131 23.4766 35.8309 24.1691 35.8309 24.9088C35.8309 25.771 35.1119 26.2346 34.3624 26.2346H31.9566V25.2482H33.8312C34.1491 25.2482 34.6226 25.2482 34.6226 24.8073C34.6226 24.5962 34.5386 24.4631 34.201 24.4281C33.9375 24.4024 33.6732 24.3846 33.4086 24.3746C32.137 24.3413 31.8421 23.7177 31.8421 22.9586C31.8421 22.0963 32.4566 21.6254 33.206 21.6254H35.6118V22.6095H33.8517C33.4506 22.6143 33.0191 22.5632 33.0191 23.0089C33.0191 23.2931 33.2324 23.3499 33.5034 23.3735C33.5964 23.3735 34.2215 23.4068 34.3047 23.4051ZM19.2105 14.7104V18.3185H18.0648V13.7191H21.043C21.6047 13.7191 22.4176 13.9659 22.4176 14.9515C22.4176 15.5053 22.2512 15.9161 21.6261 16.2246C22.1672 16.2855 22.3756 16.6346 22.3756 17.3735L22.4176 18.3185H21.3033L21.272 17.4766C21.2613 17.0869 21.1056 16.6963 20.7095 16.6963H19.2105V15.7521H20.6362C21.1056 15.7521 21.272 15.5467 21.272 15.2381C21.272 15.0124 21.1204 14.7104 20.6419 14.7104H19.2105ZM23.0007 18.3185H24.1464V13.7134H23.0007V18.3185ZM13.6643 13.7191H17.4084V14.7104H14.81V15.5718H17.336V16.4455H14.81V17.3532H17.4084V18.3185H13.6643V13.7191ZM6.46352 18.1488L4.46381 13.7191H2.94837L0.907471 18.3185H2.1157L2.56292 17.2923H4.84925L4.40615 16.3017H3.01096L3.69456 14.6942L5.30224 18.3185H7.60916V14.9053L9.14025 18.3185H10.1813L11.7486 14.9621V18.3185H12.8942V13.7191H11.0658L9.65994 16.8043L8.25981 13.7191H6.46352V18.1488ZM26.7654 17.285L27.2604 17.2817L28.8376 13.7191H30.3531L32.3058 18.036V13.7174H33.9984L35.9297 16.9017V13.7174H37.0745V18.3202H35.513L33.4515 14.9532V18.3202H31.1915L29.583 14.6966L28.9002 16.3042H30.3012L30.7369 17.2939H28.4522L28.0041 18.3202H26.4945C25.2245 18.3202 24.6619 17.2712 24.6883 15.9989C24.7262 14.1096 25.8595 13.7174 26.38 13.7174H27.8757V14.7169H27.1674C26.4072 14.7169 25.8133 14.7948 25.8133 15.8731V16.2068C25.8191 17.0178 26.2499 17.2103 26.5258 17.2663C26.5933 17.2817 26.7185 17.2882 26.7654 17.285Z" fill="#101010"/>
<path fill-rule="evenodd" clip-rule="evenodd" d="M39.9127 9.42334V20.905H37.3504C36.9971 20.905 36.3917 21.0902 36.1628 21.419V20.905H33.1228C32.5191 20.905 32.123 21.1113 31.8734 21.4393V20.905H27.1237V21.4799C26.8535 21.0496 26.2078 20.905 25.8751 20.905H22.084V21.3979C21.8658 21.0699 21.2719 20.9261 20.9598 20.905H16.523L15.5232 21.9938L14.5447 20.905H8.94171V26.9205H14.4607L15.4606 25.7911L16.3978 26.9205H19.647V25.3397H20.9384C20.9484 25.3391 20.9585 25.3385 20.9688 25.3379C21.3229 25.3171 21.8415 25.2867 22.084 24.8875V26.9205H24.5211V25.1554H24.8958C25.2786 25.1554 25.2835 25.3984 25.2871 25.5737C25.2878 25.6085 25.2884 25.6407 25.292 25.6677V26.9205H34.4554C35.018 26.9205 35.3721 26.7362 35.6217 26.4682V26.9205H38.8716C39.3715 26.9205 39.7043 26.7362 39.9127 26.5096V29.4053H1.00708V19.0165H2.67241L3.15175 17.9489H4.25539L4.71414 19.0165H8.15023V17.6403L8.81653 19.0165H10.5667L11.2124 17.6615V19.0165H19.815V17.292H20.2531C20.4813 17.292 20.6476 17.5169 20.6476 17.7021V19.0165H24.6891V18.0926C24.9172 18.7908 25.9797 18.9751 26.4384 19.0165H28.5411L29.0419 17.8458H30.1035L30.6454 19.0165H33.9983V17.2506L35.102 19.0165H37.7474V13.0214H35.2897V14.6428L34.3311 13.0214H31.6445V14.8896L30.811 13.0214H26.2704C25.4163 13.0214 24.979 13.3291 24.6883 13.7188V13.0214H22.4588V13.6165C22.2092 13.1651 21.6467 13.0214 21.2299 13.0214H10.5873L9.6912 14.9318L8.77535 13.0214H5.75518V14.9513L4.9431 13.0214H2.46404L1.00708 16.265V9.42334H39.9127Z" fill="#101010"/>
</g>
<defs>
<clipPath id="clip0_701_2485">
<rect width="42.0925" height="37.9658" fill="white" transform="translate(0.907471 0.431641)"/>
</clipPath>
</defs>
</svg>
