<svg width="55" height="11" viewBox="0 0 55 11" fill="none" xmlns="http://www.w3.org/2000/svg">
<g clip-path="url(#clip0_701_2471)">
<path d="M0 0.790039H2.37021C5.02572 0.790039 7.37061 1.69228 7.37061 5.16254C7.37061 8.63448 5.02572 9.53672 2.37021 9.53672H0V0.790039Z" fill="#101010"/>
<path d="M1.73706 8.1583H2.70439C4.15623 8.1583 5.55742 7.06726 5.55742 5.16254C5.55742 3.25782 4.15623 2.16846 2.70439 2.16846H1.73706V8.1583Z" fill="white"/>
<path d="M8.06445 0.790021H9.80159V9.5367H8.06445V0.790021ZM15.4013 3.09908C14.8037 2.72983 14.1605 2.33886 13.4801 2.25365C12.8572 2.17512 12.1938 2.36058 12.1938 3.23441C12.1938 4.7515 15.9905 4.11159 15.9905 7.04385C15.9905 8.96027 14.4779 9.88088 12.739 9.68874C11.797 9.58348 11.2517 9.30111 10.5005 8.79987V7.02547C11.0964 7.35128 11.9692 7.95444 12.6411 8.07474C13.3789 8.20506 14.1791 7.97115 14.1791 7.18086C14.1791 5.51339 10.3823 6.20344 10.3823 3.3096C10.3823 1.35475 11.8848 0.639648 13.4092 0.639648C14.1537 0.639648 14.8206 0.922015 15.4013 1.42326V3.09908ZM27.8567 0.639648C30.5747 0.639648 32.3372 2.49424 32.3372 5.13913C32.3372 7.78235 30.5983 9.68874 27.8567 9.68874C25.078 9.68874 23.2969 7.82078 23.2969 5.13913C23.2969 2.45582 25.1033 0.639648 27.8567 0.639648ZM31.7514 0.790021H33.6117L35.5413 5.41147L37.3426 0.790021H39.1456L35.754 9.5367H35.1243L31.7514 0.790021ZM39.598 0.790021H44.7099V2.16844H41.3352V4.32378H44.4246V5.70219H41.3352V8.15828H44.7352V9.5367H39.598V0.790021ZM45.1977 0.790021H47.0716C48.9337 0.790021 51.1537 0.72653 51.1537 3.15755C51.1537 4.1851 50.4716 5.03721 49.3659 5.18759V5.21265C49.8369 5.24941 50.1104 5.72726 50.2842 6.11488L51.6736 9.53503H49.739L48.6973 6.80493C48.4492 6.15331 48.2263 5.90269 47.4937 5.90269H46.9349V9.5367H45.1977V0.790021Z" fill="#101010"/>
<path d="M46.9348 4.52401H47.5054C48.3613 4.52401 49.3422 4.3987 49.3422 3.30766C49.3422 2.25506 48.3748 2.1665 47.5054 2.1665H46.9348V4.52401Z" fill="white"/>
<path d="M22.858 8.66294C22.436 9.20429 21.3825 9.53678 20.6718 9.5869C17.9792 9.77403 16.1694 8.27866 16.1694 5.32133C16.1694 2.32724 17.7462 0.591273 20.6836 0.726608C21.2542 0.753341 22.1878 0.943813 22.8192 1.45508V3.1426C22.0831 2.68814 21.3201 2.36567 20.6735 2.33894C18.8874 2.26709 17.9809 3.40491 17.9809 5.19602C17.9809 6.97543 18.8266 7.97624 20.6752 7.90774C21.3842 7.88101 22.4731 7.30458 22.8563 6.98712V8.66294H22.858Z" fill="#101010"/>
<path d="M54.2869 1.50856C54.2869 1.15602 54.0302 0.900391 53.7112 0.900391C53.3921 0.900391 53.1355 1.15435 53.1355 1.50856C53.1355 1.8611 53.3921 2.11507 53.7112 2.11507C54.0286 2.11507 54.2869 1.85943 54.2869 1.50856Z" fill="white"/>
<path d="M53.5779 1.44316H53.7197C53.8142 1.44316 53.8969 1.42979 53.8969 1.31618C53.8969 1.21426 53.8041 1.19922 53.7214 1.19922H53.5779V1.44316Z" fill="white"/>
<path d="M32.3535 5.25913C32.3535 7.81174 30.2842 9.88104 27.7315 9.88104C25.1789 9.88104 23.1096 7.81174 23.1096 5.25913C23.1096 2.70651 25.1789 0.637207 27.7315 0.637207C30.2842 0.637207 32.3535 2.15384 32.3535 5.25913Z" fill="#EC6D1D"/>
</g>
<defs>
<clipPath id="clip0_701_2471">
<rect width="54.4726" height="9.90411" fill="white" transform="translate(0 0.637207)"/>
</clipPath>
</defs>
</svg>
