<svg width="96" height="96" viewBox="0 0 96 96" fill="none" xmlns="http://www.w3.org/2000/svg">
<path fill-rule="evenodd" clip-rule="evenodd" d="M39.6266 5.90555L29.6311 3.65331L24.156 12.3146L14.059 14.0584L12.3146 24.1554L3.65393 29.6304L5.90617 39.6266L0 47.9997L5.90617 56.3727L3.65393 66.3683L12.3146 71.844L14.059 81.941L24.156 83.6854L29.6311 92.3461L39.6266 90.0938L48.0003 96L56.3734 90.0938L66.3689 92.3461L71.8452 83.6854L81.941 81.941L83.686 71.844L92.3467 66.3683L90.0945 56.3727L96 47.9997L90.0945 39.6266L92.3467 29.6304L83.686 24.1554L81.941 14.0584L71.8452 12.3146L66.3689 3.65331L56.3734 5.90555L48.0003 0L39.6266 5.90555Z" fill="#FFE947"/>
<path fill-rule="evenodd" clip-rule="evenodd" d="M72.0516 48.7336C72.0516 35.0579 60.9687 23.9707 47.2962 23.9707C33.6249 23.9707 22.542 35.0579 22.542 48.7336C22.542 62.41 33.6249 73.4972 47.2962 73.4972C60.9687 73.4972 72.0516 62.41 72.0516 48.7336Z" fill="white"/>
<path fill-rule="evenodd" clip-rule="evenodd" d="M12.6826 37.976L12.9298 39.0183L13.9026 39.3262L13.6418 38.2802L17.3488 39.456L17.6344 38.5553L12.9682 37.0752L12.6826 37.976Z" fill="#0D0E17"/>
<path fill-rule="evenodd" clip-rule="evenodd" d="M18.6921 34.1093C18.6174 34.2546 18.516 34.3684 18.3874 34.45C18.2589 34.5322 18.1186 34.5773 17.9666 34.586C17.8145 34.5947 17.6662 34.5613 17.5203 34.4871L16.0865 33.7526C15.9412 33.6784 15.8275 33.577 15.7459 33.4484C15.6644 33.3198 15.6186 33.1795 15.6106 33.0274C15.6013 32.8753 15.6347 32.7263 15.7089 32.581C15.783 32.4358 15.8844 32.322 16.0129 32.2404C16.1415 32.1588 16.2824 32.113 16.4344 32.1044C16.5865 32.0957 16.7348 32.1285 16.8794 32.2033L18.3145 32.9378C18.4591 33.0126 18.5729 33.114 18.6544 33.2426C18.7366 33.3712 18.7824 33.5109 18.7904 33.663C18.7991 33.8151 18.7663 33.9641 18.6921 34.1093ZM18.6841 32.0654L17.377 31.3953C17.055 31.2308 16.7379 31.1535 16.4264 31.164C16.1149 31.1758 15.83 31.2673 15.5704 31.441C15.3115 31.6135 15.0995 31.8614 14.9345 32.1841C14.7688 32.5069 14.6916 32.824 14.7033 33.1356C14.7138 33.4472 14.8065 33.7322 14.979 33.9913C15.1514 34.2509 15.3998 34.4624 15.7218 34.628L17.0296 35.2976C17.3522 35.4627 17.6693 35.54 17.9808 35.5288C18.2917 35.5177 18.5766 35.4256 18.8355 35.2531C19.0945 35.08 19.3071 34.8321 19.4727 34.5087C19.6377 34.1866 19.7144 33.8688 19.7039 33.5579C19.6921 33.2463 19.6007 32.9619 19.4276 32.7022C19.2546 32.4432 19.0073 32.2305 18.6841 32.0654Z" fill="#0D0E17"/>
<path fill-rule="evenodd" clip-rule="evenodd" d="M22.1197 28.5937C22.0999 28.7445 22.0393 28.8849 21.9392 29.0135C21.8391 29.142 21.7186 29.2348 21.5764 29.291C21.4355 29.3479 21.2884 29.3659 21.1376 29.3461C20.9868 29.3263 20.8465 29.2657 20.718 29.1655L19.4467 28.1751C19.3181 28.075 19.2254 27.9538 19.1692 27.8122C19.1129 27.6706 19.0944 27.5247 19.1148 27.3733C19.1346 27.2218 19.1945 27.0827 19.2946 26.9535C19.3954 26.8249 19.5159 26.7321 19.6574 26.6753C19.7989 26.6196 19.9448 26.6011 20.0962 26.6215C20.2476 26.6413 20.3873 26.7006 20.5159 26.802L21.7872 27.7918C21.9157 27.892 22.0084 28.0131 22.0647 28.1547C22.1215 28.2963 22.1395 28.4422 22.1197 28.5937ZM22.6308 29.5526C22.8533 29.2663 22.9887 28.9689 23.0362 28.6611C23.0838 28.3532 23.0467 28.0558 22.9256 27.7689C22.8039 27.4814 22.5999 27.2267 22.3138 27.0042L21.1549 26.1015C20.87 25.8783 20.5721 25.7442 20.2643 25.696C19.9565 25.649 19.6599 25.6861 19.3725 25.8072C19.0857 25.9284 18.8311 26.1331 18.608 26.4187C18.3855 26.7049 18.2501 27.0023 18.2032 27.3102C18.1556 27.6181 18.1927 27.9148 18.3144 28.2023C18.4355 28.4892 18.6389 28.7439 18.925 28.9671L20.0839 29.8691C20.37 30.0923 20.6667 30.2277 20.9745 30.2747C21.2829 30.3217 21.5801 30.2846 21.8669 30.1634C22.1537 30.0422 22.4083 29.8388 22.6308 29.5526Z" fill="#0D0E17"/>
<path fill-rule="evenodd" clip-rule="evenodd" d="M27.3369 23.3775C27.2627 23.3528 27.1997 23.3102 27.1484 23.2496C27.0977 23.1884 27.0668 23.1197 27.0544 23.0425C27.0421 22.9646 27.0489 22.8891 27.0736 22.8149C27.0983 22.7408 27.1416 22.6777 27.2021 22.6264C27.2627 22.5751 27.3319 22.5435 27.4092 22.5324C27.4864 22.52 27.5625 22.5268 27.6366 22.5516C27.7108 22.5763 27.7738 22.619 27.8245 22.6796C27.8758 22.7408 27.9073 22.8094 27.9191 22.8867C27.9314 22.9646 27.9246 23.04 27.8999 23.1142C27.8746 23.1884 27.8325 23.2514 27.7714 23.3027C27.7108 23.3541 27.6416 23.3856 27.5643 23.3967C27.4871 23.4091 27.411 23.4023 27.3369 23.3775ZM28.2757 23.9012C28.4469 23.7559 28.568 23.5822 28.6391 23.3782C28.7108 23.1741 28.7293 22.9664 28.6941 22.7544C28.6595 22.5417 28.5686 22.3494 28.4228 22.1763C28.2769 22.0026 28.102 21.8808 27.8993 21.8103C27.696 21.7398 27.4883 21.7225 27.2751 21.7584C27.0625 21.7936 26.8696 21.8839 26.6984 22.0279C26.5316 22.1689 26.4135 22.3408 26.3431 22.5454C26.272 22.75 26.2534 22.9602 26.2868 23.1754C26.3196 23.3905 26.408 23.5834 26.5513 23.7528C26.6972 23.9265 26.8721 24.0483 27.0754 24.1176C27.2794 24.1881 27.4877 24.2054 27.6997 24.1701C27.9117 24.1355 28.1032 24.0453 28.2757 23.9012Z" fill="#0D0E17"/>
<path fill-rule="evenodd" clip-rule="evenodd" d="M26.2344 19.8936L25.3685 19.8145L24.8518 25.8522L25.714 25.9258L26.2344 19.8936Z" fill="#0D0E17"/>
<path fill-rule="evenodd" clip-rule="evenodd" d="M23.182 22.6265C23.2067 22.5523 23.2494 22.4892 23.3099 22.4379C23.3711 22.3872 23.4397 22.3557 23.517 22.3439C23.5949 22.3316 23.6703 22.3384 23.7444 22.3631C23.8186 22.3878 23.8816 22.4311 23.9329 22.4911C23.9842 22.5523 24.0157 22.6209 24.0269 22.6988C24.0392 22.7761 24.0324 22.8521 24.0077 22.9263C23.983 23.0005 23.9403 23.0629 23.8798 23.1143C23.8186 23.1656 23.75 23.1971 23.6727 23.2089C23.5949 23.2206 23.5195 23.2144 23.4453 23.1891C23.3711 23.1643 23.3081 23.1217 23.2568 23.0611C23.2055 22.9999 23.174 22.9313 23.1628 22.854C23.1505 22.7761 23.1573 22.7007 23.182 22.6265ZM22.6585 23.565C22.805 23.7387 22.9793 23.8605 23.1826 23.9303C23.3853 24.0014 23.5936 24.0188 23.8068 23.9829C24.0188 23.9477 24.2117 23.8568 24.3829 23.7127C24.5553 23.5674 24.6758 23.3937 24.7463 23.1909C24.8167 22.9881 24.8353 22.7798 24.8007 22.5665C24.7667 22.3544 24.677 22.1609 24.5312 21.9878C24.3847 21.8147 24.2098 21.6923 24.0059 21.6231C23.8019 21.5532 23.5942 21.5359 23.3816 21.5705C23.1696 21.6058 22.9781 21.6954 22.8069 21.8401C22.64 21.9804 22.5219 22.1523 22.4509 22.3569C22.3804 22.5622 22.3619 22.7718 22.3952 22.9875C22.4274 23.2027 22.5158 23.3949 22.6585 23.565Z" fill="#0D0E17"/>
<path fill-rule="evenodd" clip-rule="evenodd" d="M35.436 14.433L35.1313 18.0516L32.4287 15.6274L31.658 15.9335L33.4639 20.4843L34.2655 20.1653L33.187 17.4475L35.5868 19.6417L35.8897 19.5205L36.132 16.2784L37.2104 18.9969L38.0133 18.6778L36.2067 14.127L35.436 14.433Z" fill="#0D0E17"/>
<path fill-rule="evenodd" clip-rule="evenodd" d="M40.4716 14.692C40.5328 14.4243 40.6539 14.2061 40.835 14.0367C41.0167 13.8673 41.2602 13.7597 41.5674 13.7146C41.8752 13.6694 42.1415 13.6985 42.3671 13.8017C42.5933 13.905 42.7763 14.0713 42.9184 14.3007C43.0599 14.5306 43.1582 14.8132 43.2132 15.1489C43.267 15.484 43.2645 15.7863 43.2027 16.0528C43.1415 16.3205 43.0204 16.5381 42.8393 16.7081C42.6576 16.8775 42.4141 16.9851 42.1069 17.0302C41.7991 17.0753 41.5328 17.0469 41.3072 16.9436C41.081 16.8404 40.8974 16.6735 40.7559 16.4435C40.6137 16.2141 40.5161 15.9316 40.4611 15.5959C40.4073 15.2602 40.4098 14.9591 40.4716 14.692ZM40.945 17.777C41.3294 17.9304 41.7627 17.9681 42.246 17.8896C42.7287 17.811 43.1285 17.6385 43.445 17.3708C43.7602 17.1038 43.9827 16.7656 44.11 16.3563C44.2373 15.9477 44.2608 15.4932 44.1792 14.9912C44.0976 14.4905 43.932 14.0657 43.6811 13.7189C43.4308 13.3714 43.1131 13.121 42.7293 12.9677C42.3449 12.8144 41.9116 12.7761 41.4283 12.8546C40.9456 12.9337 40.5458 13.1068 40.2293 13.3733C39.9141 13.641 39.6916 13.9792 39.5643 14.3878C39.437 14.7965 39.4135 15.2515 39.4951 15.7529C39.5767 16.2537 39.7423 16.6784 39.9932 17.0259C40.2435 17.3733 40.5612 17.6237 40.945 17.777Z" fill="#0D0E17"/>
<path fill-rule="evenodd" clip-rule="evenodd" d="M47.5989 14.1014L49.5983 17.446L50.5359 17.4825L50.7262 12.5897L49.7886 12.5533L49.662 15.8145L47.6626 12.4704L46.7244 12.4346L46.5347 17.3273L47.4722 17.3632L47.5989 14.1014Z" fill="#0D0E17"/>
<path fill-rule="evenodd" clip-rule="evenodd" d="M56.0867 17.6864L53.8729 17.1838L54.151 15.9566L55.968 16.3696L56.159 15.5275L54.3426 15.1145L54.5743 14.0932L56.7888 14.5965L56.9797 13.7544L53.8636 13.0459L52.7795 17.8212L55.8951 18.5285L56.0867 17.6864Z" fill="#0D0E17"/>
<path fill-rule="evenodd" clip-rule="evenodd" d="M59.9175 20.0226L60.6931 18.187L63.3631 16.1635L62.3674 15.7425L60.674 17.0272L60.4138 14.9165L59.4175 14.4961L59.8285 17.8216L59.0535 19.6572L59.9175 20.0226Z" fill="#0D0E17"/>
<path fill-rule="evenodd" clip-rule="evenodd" d="M67.3151 21.8968L68.2088 22.5973C68.3219 22.6851 68.3992 22.7797 68.4424 22.8811C68.4857 22.9825 68.4974 23.0833 68.4795 23.184C68.461 23.2848 68.4159 23.3806 68.3448 23.4721C68.2638 23.5754 68.1717 23.6477 68.0685 23.6891C67.9659 23.7312 67.859 23.7429 67.7496 23.725C67.6396 23.7071 67.5358 23.6595 67.4381 23.5828L66.5444 22.8823L67.3151 21.8968ZM68.4925 20.392L69.2854 21.0128C69.4245 21.1216 69.4987 21.2446 69.5098 21.3825C69.5197 21.5203 69.4789 21.6483 69.3868 21.7658C69.312 21.8604 69.2335 21.9228 69.1495 21.9537C69.0648 21.984 68.9789 21.9877 68.893 21.9661C68.8058 21.9445 68.7218 21.9018 68.6402 21.8369L67.8473 21.2168L68.4925 20.392ZM67.7459 24.6894C67.9968 24.7259 68.2323 24.6901 68.4548 24.5813C68.6761 24.4724 68.8769 24.3037 69.0568 24.0731C69.2249 23.8591 69.3157 23.618 69.3312 23.351C69.3417 23.1519 69.2935 22.9621 69.1847 22.7791C69.3126 22.7952 69.4418 22.7933 69.5704 22.7525C69.7793 22.6851 69.969 22.5441 70.1377 22.3278C70.2706 22.159 70.3627 21.9605 70.414 21.7324C70.4653 21.5049 70.4492 21.2699 70.3658 21.0276C70.2823 20.7852 70.1031 20.5559 69.8281 20.3407L68.2861 19.1333L65.2688 22.9893L66.9764 24.3265C67.2391 24.5318 67.4956 24.653 67.7459 24.6894Z" fill="#0D0E17"/>
<path fill-rule="evenodd" clip-rule="evenodd" d="M71.7863 26.2623L73.8265 25.3318L72.6553 27.2484L71.7863 26.2623ZM69.9953 27.079L70.9656 26.6363L72.1844 28.0193L71.6275 28.93L72.2573 29.6447L74.939 25.2836L74.0255 24.248L69.3655 26.3649L69.9953 27.079Z" fill="#0D0E17"/>
<path fill-rule="evenodd" clip-rule="evenodd" d="M76.7402 34.1038L76.4918 33.1697C76.1914 33.2408 75.9158 33.2253 75.6642 33.1233C75.4127 33.0213 75.2007 32.8241 75.0283 32.5304C74.8719 32.2621 74.7996 32.0043 74.8144 31.7551C74.828 31.5066 74.9176 31.2735 75.0814 31.0559C75.2458 30.8389 75.4745 30.6442 75.7681 30.4717C76.0604 30.2998 76.3416 30.1953 76.6117 30.1576C76.8818 30.1199 77.1284 30.1557 77.3527 30.2646C77.5771 30.3734 77.7674 30.5619 77.925 30.8296C78.0968 31.1227 78.1667 31.404 78.1339 31.6723C78.1012 31.9419 77.98 32.1904 77.7699 32.4185L78.464 33.0912C78.7952 32.7159 78.9843 32.2924 79.0313 31.8219C79.0783 31.3514 78.9596 30.8735 78.6753 30.3888C78.4269 29.9666 78.1216 29.6568 77.7582 29.4584C77.3954 29.2605 76.9998 29.1752 76.5728 29.2043C76.1457 29.2333 75.7131 29.3768 75.2755 29.6333C74.8379 29.8905 74.5023 30.1984 74.2687 30.5576C74.0357 30.9168 73.917 31.3032 73.9127 31.7174C73.9084 32.131 74.0301 32.549 74.2786 32.9712C74.5629 33.4559 74.922 33.7923 75.3558 33.9808C75.7891 34.1688 76.2508 34.2102 76.7402 34.1038Z" fill="#0D0E17"/>
<path fill-rule="evenodd" clip-rule="evenodd" d="M81.8513 37.7405L79.1072 36.7241L81.2382 35.9804L80.9335 35.1074L76.3118 36.7204L76.6158 37.5934L78.7221 36.8583L77.2586 39.4357L77.6436 40.5405L79.2703 37.6688L82.2233 38.8064L81.8513 37.7405Z" fill="#0D0E17"/>
<path fill-rule="evenodd" clip-rule="evenodd" d="M35.9737 60.8174V50.4321H34.4866L32.999 51.5264V53.1017L34.4866 52.0074V60.8174H35.9737Z" fill="#0D0E17"/>
<path fill-rule="evenodd" clip-rule="evenodd" d="M42.6225 54.5601H42.5934L41.3981 50.4321H39.8228L41.8641 56.4272V60.8174H43.3518V56.4272L45.3925 50.4321H43.8184L42.6225 54.5601Z" fill="#0D0E17"/>
<path fill-rule="evenodd" clip-rule="evenodd" d="M47.3315 59.3299V56.2813H49.8976V54.8816H47.3315V51.8331H50.2771V50.4321H45.8445V60.8174H50.2771V59.3299H47.3315Z" fill="#0D0E17"/>
<path fill-rule="evenodd" clip-rule="evenodd" d="M52.4641 57.1858L53.1934 53.4226H53.2224L53.9511 57.1858H52.4641ZM54.6662 60.8174H56.1532L53.8349 50.4321H52.5951L50.2769 60.8174H51.7639L52.2014 58.5861H54.228L54.6662 60.8174Z" fill="#0D0E17"/>
<path fill-rule="evenodd" clip-rule="evenodd" d="M58.0778 51.8331H58.8504C59.3658 51.8331 59.715 51.9691 59.9004 52.2411C59.9876 52.387 60.0463 52.5601 60.0747 52.7592C60.1044 52.9583 60.1192 53.1889 60.1192 53.4516C60.1192 53.7144 60.1044 53.9456 60.0747 54.1447C60.0463 54.3444 59.9925 54.5119 59.9153 54.6479C59.8275 54.7839 59.7057 54.8884 59.5506 54.9614C59.3949 55.0343 59.186 55.0708 58.9233 55.0708H58.0778V51.8331ZM56.5908 60.8174H58.0778V56.3833H58.9666L60.3522 60.8174H61.927L60.3232 56.0773C60.7991 55.8146 61.1322 55.4696 61.3219 55.0411C61.5117 54.6139 61.6062 54.0934 61.6062 53.4807C61.6062 51.4491 60.7317 50.4321 58.982 50.4321H56.5908V60.8174Z" fill="#0D0E17"/>
<path fill-rule="evenodd" clip-rule="evenodd" d="M26.2897 71.8641C25.9739 71.5778 25.6197 71.3899 25.2266 71.3027C24.8336 71.2143 24.4325 71.2415 24.0239 71.3831C23.6148 71.5241 23.2285 71.7955 22.8639 72.1961C22.5851 72.5034 22.3849 72.8156 22.2625 73.134C22.1408 73.4517 22.0864 73.7621 22.1006 74.0663C22.1136 74.3698 22.1865 74.6561 22.3194 74.9244C22.4516 75.1933 22.6321 75.432 22.8602 75.6385C23.2087 75.9556 23.5802 76.1553 23.9751 76.2363C24.37 76.3179 24.7588 76.2889 25.1438 76.1485C25.5289 76.0082 25.8787 75.7646 26.1945 75.4171C26.2013 75.4085 26.2297 75.3763 26.2786 75.3195C26.3274 75.262 26.3595 75.2218 26.3762 75.1964L25.0728 74.0119L24.5932 74.5405L25.1667 75.0616C24.9559 75.2193 24.7514 75.3201 24.5524 75.3627C24.3546 75.406 24.1655 75.3986 23.9875 75.3405C23.8089 75.2824 23.6438 75.181 23.4906 75.0357C23.2638 74.8236 23.1204 74.5967 23.061 74.3556C23.0017 74.1151 23.0172 73.8672 23.1092 73.6131C23.2001 73.3596 23.3602 73.1068 23.5888 72.8551C23.8175 72.6035 24.0555 72.418 24.3021 72.3C24.5493 72.1819 24.7953 72.1398 25.0406 72.1769C25.2866 72.2128 25.5227 72.3377 25.7495 72.5497C25.9794 72.7618 26.1111 72.9986 26.1444 73.2601C26.1772 73.5222 26.1308 73.7881 26.0041 74.0589L26.7946 74.5936C27.0641 74.1157 27.1636 73.6471 27.0937 73.1884C27.0233 72.729 26.7557 72.2882 26.2897 71.8641Z" fill="#0D0E17"/>
<path fill-rule="evenodd" clip-rule="evenodd" d="M32.1538 76.2117L30.5889 78.8324C30.5074 78.969 30.4103 79.0803 30.2966 79.165C30.1835 79.2509 30.0618 79.3103 29.9314 79.3431C29.8003 79.3758 29.6674 79.382 29.5309 79.3616C29.3937 79.3406 29.2614 79.2911 29.1328 79.2145C29.0086 79.1403 28.9042 79.0488 28.8201 78.9387C28.7373 78.8293 28.678 78.7094 28.644 78.5777C28.6106 78.4466 28.6038 78.3112 28.6242 78.1702C28.6452 78.0293 28.6965 77.8902 28.7793 77.7517L30.3442 75.1303L29.5358 74.6543L27.9703 77.2763C27.7688 77.6132 27.6662 77.9489 27.6613 78.284C27.657 78.6197 27.7416 78.9319 27.9172 79.2225C28.0914 79.5137 28.3486 79.7597 28.6872 79.9619C29.0253 80.1647 29.364 80.2735 29.7027 80.2902C30.0414 80.3063 30.3572 80.2327 30.6495 80.0695C30.9425 79.9069 31.1891 79.6565 31.3905 79.3196L32.9597 76.6926L32.1538 76.2117Z" fill="#0D0E17"/>
<path fill-rule="evenodd" clip-rule="evenodd" d="M34.9128 80.8052L36.2595 79.0129L36.147 81.2553L34.9128 80.8052ZM32.8362 82.0534L33.7299 82.3792L34.3702 81.5267L36.1019 82.1579L36.0488 83.2244L36.9431 83.5502L37.2138 78.4373L35.9165 77.9644L32.8362 82.0534Z" fill="#0D0E17"/>
<path fill-rule="evenodd" clip-rule="evenodd" d="M43.0023 81.4426C42.9887 81.5304 42.9609 81.62 42.9195 81.7134C42.878 81.8068 42.8169 81.8877 42.7371 81.9564C42.6574 82.0244 42.553 82.0658 42.4244 82.0794C42.3756 82.0856 42.3224 82.0862 42.2662 82.0813C42.2093 82.0769 42.1574 82.0714 42.1111 82.0633L41.0233 81.8884L41.2637 80.3978L42.3509 80.5734C42.3978 80.5802 42.4485 80.5913 42.5041 80.6049C42.5591 80.6179 42.6092 80.6352 42.6543 80.6568C42.7717 80.7094 42.8583 80.7817 42.912 80.872C42.9664 80.9622 42.9986 81.0581 43.0091 81.1595C43.0183 81.2608 43.0165 81.3554 43.0023 81.4426ZM43.5907 80.2185C43.4293 80.0429 43.2081 79.91 42.9269 79.8185C42.8657 79.7975 42.7965 79.7789 42.7174 79.7622C42.6383 79.7461 42.5758 79.7344 42.5282 79.727L40.4887 79.3975L39.7087 84.2321L40.6216 84.3786L40.8855 82.7409L41.9046 82.9048L42.4337 84.6717L43.4677 84.838L42.8818 82.8998C43.1067 82.8411 43.3002 82.7384 43.4528 82.5814C43.7 82.3267 43.857 81.9966 43.9219 81.591C43.9658 81.3202 43.9621 81.068 43.9102 80.833C43.8583 80.5987 43.752 80.3941 43.5907 80.2185Z" fill="#0D0E17"/>
<path fill-rule="evenodd" clip-rule="evenodd" d="M47.5777 83.1041L48.1716 80.9409L48.891 83.0682L47.5777 83.1041ZM47.4676 80.0932L46.1042 85.0281L47.056 85.0021L47.3385 83.9746L49.1809 83.9251L49.5226 84.9359L50.4744 84.9106L48.8477 80.0562L47.4676 80.0932Z" fill="#0D0E17"/>
<path fill-rule="evenodd" clip-rule="evenodd" d="M55.2261 79.0934L55.9399 82.2786L53.1501 79.5596L52.2341 79.7649L53.3052 84.542L54.2205 84.3368L53.5067 81.1522L56.2965 83.8718L57.2124 83.666L56.1408 78.8882L55.2261 79.0934Z" fill="#0D0E17"/>
<path fill-rule="evenodd" clip-rule="evenodd" d="M61.9429 77.5044L61.5986 76.7124L57.9194 78.3093L58.2631 79.1013L59.679 78.4874L61.2834 82.1869L62.1314 81.8191L60.5269 78.1189L61.9429 77.5044Z" fill="#0D0E17"/>
<path fill-rule="evenodd" clip-rule="evenodd" d="M66.2276 78.6372L65.5354 77.5868L67.091 76.5617L66.6164 75.8403L65.0601 76.8653L64.4848 75.9911L66.3809 74.741L65.9056 74.0195L63.2375 75.7784L65.9303 79.8669L68.5984 78.1092L68.1232 77.3877L66.2276 78.6372Z" fill="#0D0E17"/>
<path fill-rule="evenodd" clip-rule="evenodd" d="M71.0306 74.9807L70.1703 74.0626L71.5306 72.7884L70.9404 72.1584L69.5807 73.432L68.865 72.6673L70.5226 71.1149L69.9323 70.4849L67.5999 72.6691L70.9459 76.2432L73.2784 74.0583L72.6882 73.4277L71.0306 74.9807Z" fill="#0D0E17"/>
<path fill-rule="evenodd" clip-rule="evenodd" d="M47.1638 47.0819C47.597 47.0819 47.9481 46.7054 47.9481 46.2398V33.9832C47.9481 33.5189 47.597 33.1411 47.1638 33.1411C46.7318 33.1411 46.3801 33.5189 46.3801 33.9832V46.2398C46.3801 46.7054 46.7318 47.0819 47.1638 47.0819Z" fill="#0D0E17"/>
<path fill-rule="evenodd" clip-rule="evenodd" d="M42.9514 38.9324V42.9763C42.9514 43.4418 43.3241 43.819 43.7839 43.819C44.2437 43.819 44.6152 43.4418 44.6152 42.9763V38.9324C44.6152 38.4668 44.2437 38.0903 43.7839 38.0903C43.3241 38.0903 42.9514 38.4668 42.9514 38.9324Z" fill="#0D0E17"/>
<path fill-rule="evenodd" clip-rule="evenodd" d="M49.9419 36.9105V43.9876C49.9419 44.4531 50.3146 44.8308 50.7744 44.8308C51.2342 44.8308 51.6063 44.4531 51.6063 43.9876V36.9105C51.6063 36.445 51.2342 36.0679 50.7744 36.0679C50.3146 36.0679 49.9419 36.445 49.9419 36.9105Z" fill="#0D0E17"/>
</svg>
