<svg width="99" height="40" viewBox="0 0 99 40" fill="none" xmlns="http://www.w3.org/2000/svg">
<g opacity="0.75">
<path fill-rule="evenodd" clip-rule="evenodd" d="M7.20669 40C5.86107 40 4.96804 38.5825 5.53052 37.3395L8.61979 30.5127L0.17407 10.9122C-0.417619 9.53905 0.571663 8 2.04599 8C2.86565 8 3.60601 8.49795 3.92677 9.26497L10.0587 23.9287C10.198 24.2752 10.3181 24.6218 10.4188 24.9675C10.5195 25.314 10.6081 25.6679 10.6854 26.0292C10.7934 25.6679 10.9021 25.314 11.0101 24.9675C11.1189 24.6218 11.2429 24.2679 11.3815 23.9058L17.3354 9.1984C17.629 8.47327 18.3239 8 19.095 8C20.4629 8 21.384 9.42372 20.8425 10.701L8.90103 38.8666C8.60941 39.5544 7.94333 40 7.20669 40Z" fill="#0D0E17"/>
<path fill-rule="evenodd" clip-rule="evenodd" d="M61 2.05409V31.9459C61 33.0803 60.1046 34 59 34H59C57.8954 34 57 33.0803 57 31.9459V2.05409C57 0.919652 57.8954 0 59 0H59C60.1046 0 61 0.919652 61 2.05409Z" fill="#ED6A32"/>
<path fill-rule="evenodd" clip-rule="evenodd" d="M32 28.2715C27.4316 28.2715 23.7284 24.5682 23.7284 20C23.7284 15.4318 27.4316 11.7285 32 11.7285C36.5683 11.7285 40.2716 15.4318 40.2716 20C40.2716 24.5682 36.5683 28.2715 32 28.2715ZM32 8C25.3725 8 20 13.3726 20 20C20 26.6274 25.3725 32 32 32C38.6275 32 44 26.6274 44 20C44 13.3726 38.6275 8 32 8Z" fill="#0D0E17"/>
<path fill-rule="evenodd" clip-rule="evenodd" d="M87 27.2715C82.4316 27.2715 78.7284 23.5682 78.7284 19C78.7284 14.4318 82.4316 10.7285 87 10.7285C91.5683 10.7285 95.2716 14.4318 95.2716 19C95.2716 23.5682 91.5683 27.2715 87 27.2715ZM87 7C80.3725 7 75 12.3726 75 19C75 25.6274 80.3725 31 87 31C93.6275 31 99 25.6274 99 19C99 12.3726 93.6275 7 87 7Z" fill="#0D0E17"/>
<path fill-rule="evenodd" clip-rule="evenodd" d="M50 26C48.8954 26 48 25.0782 48 23.9412V14.0588C48 12.9218 48.8954 12 50 12C51.1046 12 52 12.9218 52 14.0588V23.9412C52 25.0782 51.1046 26 50 26Z" fill="#ED6A32"/>
<path fill-rule="evenodd" clip-rule="evenodd" d="M67 29C65.8954 29 65 28.0529 65 26.8846V9.1154C65 7.9471 65.8954 7 67 7C68.1046 7 69 7.9471 69 9.1154V26.8846C69 28.0529 68.1046 29 67 29Z" fill="#ED6A32"/>
</g>
</svg>
