<svg width="35" height="28" viewBox="0 0 35 28" fill="none" xmlns="http://www.w3.org/2000/svg">
<g clip-path="url(#clip0_701_2490)">
<path d="M33.6278 26.7862V26.8541H33.6909C33.7028 26.8543 33.7145 26.8513 33.7248 26.8455C33.7289 26.8425 33.7322 26.8386 33.7344 26.8341C33.7366 26.8296 33.7377 26.8245 33.7375 26.8195C33.7377 26.8145 33.7366 26.8096 33.7344 26.8052C33.7322 26.8008 33.7289 26.797 33.7248 26.7942C33.7146 26.7881 33.7028 26.785 33.6909 26.7855H33.6278V26.7862ZM33.6916 26.7382C33.7187 26.7365 33.7454 26.7443 33.7674 26.7602C33.7762 26.7675 33.7832 26.7767 33.7878 26.7871C33.7924 26.7976 33.7945 26.8089 33.794 26.8203C33.7944 26.8302 33.7927 26.8399 33.789 26.849C33.7853 26.8581 33.7797 26.8664 33.7726 26.8731C33.7557 26.8879 33.7345 26.8968 33.7121 26.8984L33.7967 26.9952H33.7315L33.6537 26.8991H33.6285V26.9952H33.574V26.7384H33.6924L33.6916 26.7382ZM33.6747 27.0838C33.7033 27.084 33.7316 27.0783 33.7578 27.0668C33.783 27.0559 33.806 27.0403 33.8254 27.0208C33.8449 27.0013 33.8605 26.9783 33.8713 26.9529C33.8935 26.8991 33.8935 26.8387 33.8713 26.7849C33.8603 26.7596 33.8448 26.7365 33.8254 26.717C33.806 26.6975 33.783 26.6819 33.7578 26.671C33.7314 26.6601 33.7032 26.6547 33.6747 26.655C33.6457 26.6547 33.617 26.6602 33.5901 26.671C33.5643 26.6817 33.5408 26.6973 33.5209 26.717C33.4909 26.7478 33.4707 26.7867 33.4627 26.829C33.4546 26.8712 33.4592 26.9149 33.4757 26.9546C33.486 26.9801 33.5014 27.0032 33.5209 27.0225C33.5408 27.0422 33.5643 27.0578 33.5901 27.0685C33.6168 27.0799 33.6456 27.0857 33.6747 27.0855V27.0838ZM33.6747 26.5932C33.749 26.5932 33.8204 26.6224 33.8735 26.6747C33.8991 26.6998 33.9194 26.7297 33.9334 26.7628C33.9478 26.7967 33.9553 26.8332 33.9553 26.8702C33.9553 26.9071 33.9478 26.9436 33.9334 26.9775C33.9191 27.0104 33.8988 27.0403 33.8735 27.0656C33.8475 27.0906 33.8173 27.1107 33.7843 27.125C33.7497 27.1398 33.7123 27.1473 33.6747 27.1471C33.6366 27.1474 33.5988 27.1398 33.5637 27.125C33.5303 27.111 33.4998 27.0909 33.4738 27.0656C33.4486 27.0393 33.4285 27.0085 33.4148 26.9746C33.4003 26.9407 33.3929 26.9042 33.3929 26.8673C33.3929 26.8304 33.4003 26.7938 33.4148 26.7599C33.4288 26.7269 33.4491 26.6969 33.4747 26.6718C33.5003 26.6461 33.5309 26.6259 33.5645 26.6124C33.5997 26.5976 33.6374 26.5901 33.6755 26.5903L33.6747 26.5932ZM7.76752 25.6015C7.76752 25.1118 8.0873 24.7095 8.60994 24.7095C9.1094 24.7095 9.44644 25.0945 9.44644 25.6015C9.44644 26.1085 9.1094 26.4934 8.60994 26.4934C8.0873 26.4934 7.76752 26.0911 7.76752 25.6015ZM10.0158 25.6015V24.2079H9.41192V24.5474C9.2204 24.2965 8.92989 24.1392 8.53482 24.1392C7.75652 24.1392 7.14572 24.7516 7.14572 25.6021C7.14572 26.4527 7.75618 27.0651 8.53482 27.0651C8.92972 27.0651 9.2204 26.9076 9.41192 26.6569V26.9952H10.0151V25.6015H10.0158ZM30.4194 25.6015C30.4194 25.1118 30.7391 24.7095 31.262 24.7095C31.7619 24.7095 32.0985 25.0945 32.0985 25.6015C32.0985 26.1085 31.7619 26.4934 31.262 26.4934C30.7393 26.4934 30.4194 26.0911 30.4194 25.6015ZM32.6683 25.6015V23.0894H32.0639V24.5474C31.8724 24.2965 31.5819 24.1392 31.1868 24.1392C30.4085 24.1392 29.7977 24.7516 29.7977 25.6021C29.7977 26.4527 30.4082 27.0651 31.1868 27.0651C31.5819 27.0651 31.8724 26.9076 32.0639 26.6569V26.9952H32.6683V25.6015ZM17.5105 24.6808C17.8996 24.6808 18.1495 24.9256 18.2133 25.3565H16.7724C16.8369 24.9543 17.0804 24.6808 17.5106 24.6808H17.5105ZM17.5226 24.1376C16.7088 24.1376 16.1395 24.7317 16.1395 25.6006C16.1395 26.4865 16.7316 27.0636 17.5631 27.0636C17.9813 27.0636 18.3644 26.9588 18.7014 26.6732L18.4055 26.2242C18.1727 26.4109 17.8763 26.5157 17.5976 26.5157C17.2084 26.5157 16.8541 26.3349 16.767 25.8333H18.829C18.8349 25.758 18.841 25.6819 18.841 25.6004C18.8349 24.7319 18.2996 24.1375 17.5223 24.1375L17.5226 24.1376ZM24.8129 25.6004C24.8129 25.1107 25.1327 24.7085 25.6553 24.7085C26.1548 24.7085 26.4918 25.0934 26.4918 25.6004C26.4918 26.1074 26.1548 26.4924 25.6553 26.4924C25.1327 26.4924 24.8127 26.0901 24.8127 25.6004H24.8129ZM27.061 25.6004V24.2079H26.4575V24.5474C26.2653 24.2965 25.9755 24.1392 25.5804 24.1392C24.8021 24.1392 24.1913 24.7516 24.1913 25.6021C24.1913 26.4527 24.8017 27.0651 25.5804 27.0651C25.9755 27.0651 26.2653 26.9076 26.4575 26.6569V26.9952H27.0612V25.6015L27.061 25.6004ZM21.4028 25.6004C21.4028 26.4456 21.9892 27.0634 22.8843 27.0634C23.3025 27.0634 23.5812 26.97 23.8825 26.7312L23.5925 26.2415C23.3658 26.405 23.1277 26.4924 22.865 26.4924C22.3829 26.4865 22.0285 26.1368 22.0285 25.6004C22.0285 25.0641 22.3829 24.7146 22.865 24.7085C23.1271 24.7085 23.3651 24.7959 23.5925 24.9593L23.8825 24.4697C23.5807 24.2308 23.302 24.1375 22.8843 24.1375C21.9892 24.1375 21.4028 24.7552 21.4028 25.6004ZM29.1875 24.1375C28.8391 24.1375 28.6122 24.3009 28.4553 24.5457V24.2079H27.8569V26.9936H28.4614V25.4321C28.4614 24.9711 28.6589 24.7149 29.0536 24.7149C29.1829 24.7131 29.3112 24.7369 29.4313 24.785L29.6174 24.214C29.4837 24.1612 29.3094 24.138 29.1871 24.138L29.1875 24.1375ZM13.0012 24.4294C12.7107 24.2373 12.3104 24.138 11.8688 24.138C11.1653 24.138 10.7124 24.4763 10.7124 25.0298C10.7124 25.484 11.0496 25.7642 11.6705 25.8516L11.9558 25.8924C12.2869 25.9391 12.4432 26.0265 12.4432 26.1838C12.4432 26.3992 12.2233 26.5221 11.8103 26.5221C11.392 26.5221 11.0902 26.388 10.8866 26.2307L10.6029 26.703C10.934 26.9478 11.3523 27.0646 11.8052 27.0646C12.6072 27.0646 13.072 26.6857 13.072 26.1553C13.072 25.6656 12.7062 25.4095 12.1018 25.3221L11.8172 25.2807C11.5558 25.2467 11.3463 25.1939 11.3463 25.0072C11.3463 24.8035 11.5438 24.681 11.8751 24.681C12.2295 24.681 12.5727 24.8151 12.7408 24.9198L13.0022 24.4301L13.0012 24.4294ZM20.7928 24.1385C20.4445 24.1385 20.2176 24.302 20.0614 24.5467V24.2079H19.463V26.9936H20.0668V25.4321C20.0668 24.9711 20.2643 24.7149 20.659 24.7149C20.7883 24.7131 20.9166 24.7369 21.0366 24.785L21.2228 24.214C21.0891 24.1612 20.9148 24.138 20.7925 24.138L20.7928 24.1385ZM15.6398 24.2079H14.6524V23.3628H14.042V24.2079H13.4787V24.7616H14.042V26.0324C14.042 26.6788 14.292 27.0637 15.0064 27.0637C15.2684 27.0637 15.5703 26.9823 15.7618 26.8483L15.5874 26.3296C15.4072 26.4344 15.2097 26.4871 15.0527 26.4871C14.7509 26.4871 14.6524 26.3004 14.6524 26.0209V24.7621H15.6398V24.2079ZM6.61174 26.9943V25.246C6.61174 24.5876 6.19349 24.1446 5.51925 24.1387C5.16479 24.1327 4.79916 24.2434 4.54316 24.6343C4.35164 24.3254 4.04979 24.1387 3.62545 24.1387C3.32885 24.1387 3.03902 24.2261 2.81213 24.5523V24.2079H2.20776V26.9936H2.81687V25.449C2.81687 24.9655 3.08419 24.7085 3.49703 24.7085C3.89802 24.7085 4.10089 24.9707 4.10089 25.4429V26.9933H4.71134V25.4487C4.71134 24.9651 4.99001 24.7081 5.39083 24.7081C5.80316 24.7081 5.99993 24.9704 5.99993 25.4426V26.993L6.61174 26.9943Z" fill="#101010"/>
<path d="M33.9722 17.7277V17.3203H33.8664L33.7441 17.5999L33.6224 17.3203H33.5163V17.7277H33.5915V17.4208L33.7058 17.6856H33.7837L33.8981 17.4201V17.7277H33.9725H33.9722ZM33.3013 17.7277V17.3901H33.4367V17.3213H33.0908V17.3901H33.2262V17.7277H33.3006H33.3013Z" fill="#F79410"/>
<path d="M21.9531 19.4749H12.802V2.97656H21.9533L21.9531 19.4749Z" fill="#FF5F00"/>
<path d="M13.3821 11.226C13.3821 7.8793 14.9441 4.89806 17.3764 2.97681C15.5353 1.52039 13.258 0.729934 10.9134 0.73341C5.13754 0.73341 0.455566 5.43103 0.455566 11.226C0.455566 17.021 5.13754 21.7186 10.9134 21.7186C13.2581 21.7221 15.5354 20.9316 17.3766 19.4752C14.9444 17.5543 13.3821 14.5729 13.3821 11.226Z" fill="#EB001B"/>
<path d="M34.2991 11.226C34.2991 17.021 29.6171 21.7186 23.8413 21.7186C21.4963 21.722 19.2188 20.9316 17.3772 19.4752C19.8102 17.5539 21.3722 14.5729 21.3722 11.226C21.3722 7.87913 19.8102 4.89806 17.3772 2.97681C19.2187 1.52043 21.4962 0.729995 23.8411 0.733409C29.617 0.733409 34.2989 5.43103 34.2989 11.226" fill="#F79E1B"/>
</g>
<defs>
<clipPath id="clip0_701_2490">
<rect width="33.839" height="26.411" fill="white" transform="translate(0.455566 0.733398)"/>
</clipPath>
</defs>
</svg>
