<svg width="52" height="52" viewBox="0 0 52 52" fill="none" xmlns="http://www.w3.org/2000/svg">
<g clip-path="url(#clip0_701_2480)">
<path d="M23.4755 33.1681H19.9615L22.1577 19.6709H25.6721L23.4755 33.1681ZM17.0053 19.6709L13.6552 28.9543L13.2588 26.9553L13.2591 26.956L12.0767 20.8861C12.0767 20.8861 11.9337 19.6709 10.4098 19.6709H4.87138L4.8064 19.8994C4.8064 19.8994 6.50005 20.2518 8.48217 21.4421L11.5351 33.1684H15.1965L20.7872 19.6709H17.0053ZM44.6449 33.1681H47.8715L45.0583 19.6705H42.2335C40.929 19.6705 40.6113 20.6764 40.6113 20.6764L35.3704 33.1681H39.0336L39.7661 31.1632H44.2333L44.6449 33.1681ZM40.7781 28.3936L42.6245 23.3427L43.6632 28.3936H40.7781ZM35.6452 22.9166L36.1467 20.0182C36.1467 20.0182 34.5992 19.4297 32.9861 19.4297C31.2423 19.4297 27.1011 20.1918 27.1011 23.8979C27.1011 27.3849 31.9615 27.4282 31.9615 29.2598C31.9615 31.0914 27.6019 30.7632 26.1631 29.6082L25.6407 32.6388C25.6407 32.6388 27.2098 33.4009 29.6071 33.4009C32.0051 33.4009 35.6228 32.1593 35.6228 28.78C35.6228 25.2706 30.7188 24.9439 30.7188 23.4181C30.7191 21.892 34.1414 22.088 35.6452 22.9166Z" fill="#267CC4"/>
<path d="M13.2591 26.9555L12.0767 20.8857C12.0767 20.8857 11.9337 19.6704 10.4098 19.6704H4.87138L4.8064 19.8989C4.8064 19.8989 7.46836 20.4506 10.0217 22.5176C12.463 24.4932 13.2591 26.9555 13.2591 26.9555Z" fill="#FAA61A"/>
</g>
<defs>
<clipPath id="clip0_701_2480">
<rect width="51.1712" height="51.1712" fill="white" transform="translate(0.753418 0.829102)"/>
</clipPath>
</defs>
</svg>
