<svg width="208" height="40" viewBox="0 0 208 40" fill="none" xmlns="http://www.w3.org/2000/svg">
<g id="Group 36">
<g id="Group 35">
<g id="Group 34">
<path id="Fill 1" fill-rule="evenodd" clip-rule="evenodd" d="M204.713 11.173C202.594 9.05836 199.788 7.8938 196.81 7.8938H123.318C120.341 7.8938 117.534 9.05836 115.415 11.173C113.296 13.2876 112.129 16.0881 112.129 19.0586V20.9416C112.129 23.9121 113.296 26.7126 115.415 28.8272C117.534 30.9418 120.341 32.1064 123.318 32.1064H196.81C199.788 32.1064 202.594 30.9418 204.713 28.8272C206.833 26.7126 208 23.9121 208 20.9416V19.0586C208 16.0881 206.833 13.2876 204.713 11.173Z" fill="#ED6A32"/>
<path id="Fill 3" fill-rule="evenodd" clip-rule="evenodd" d="M130.391 20.493C130.391 21.088 130.279 21.6546 130.059 22.177C129.839 22.7003 129.531 23.1611 129.145 23.5465C128.757 23.9332 128.297 24.2439 127.778 24.4698C127.262 24.6948 126.705 24.8089 126.122 24.8089C125.54 24.8089 124.982 24.6948 124.466 24.4697C123.947 24.2436 123.487 23.933 123.1 23.5464C122.713 23.1602 122.402 22.6989 122.175 22.1748C121.949 21.6534 121.835 21.0876 121.835 20.493C121.835 19.9113 121.949 19.3518 122.175 18.8301V18.8301C122.402 18.3064 122.713 17.8449 123.1 17.4585C123.487 17.0724 123.947 16.7617 124.466 16.5352C124.983 16.3102 125.54 16.1961 126.122 16.1961C126.705 16.1961 127.262 16.3102 127.778 16.5351C128.297 16.7615 128.757 17.0722 129.145 17.4585C129.531 17.8441 129.839 18.305 130.059 18.8279C130.279 19.3507 130.391 19.9109 130.391 20.493ZM130.411 16.221C129.86 15.6781 129.209 15.2439 128.476 14.9304C127.741 14.6159 126.949 14.4564 126.122 14.4564C125.545 14.4564 125.007 14.53 124.524 14.675C124.043 14.8198 123.602 15.0168 123.213 15.2604C122.823 15.5042 122.472 15.7915 122.169 16.1141C122.052 16.2382 121.94 16.3644 121.835 16.4924V12.2791C121.835 12.0363 121.747 11.8252 121.573 11.6513C121.399 11.4782 121.188 11.3904 120.944 11.3904C120.7 11.3904 120.489 11.4783 120.315 11.6515C120.141 11.8247 120.053 12.0359 120.053 12.2791V25.4895C120.053 25.7332 120.142 25.9444 120.315 26.1171C120.489 26.2904 120.7 26.3782 120.944 26.3782C121.188 26.3782 121.399 26.2904 121.573 26.1171C121.747 25.9439 121.835 25.7328 121.835 25.4895V24.5092C121.941 24.6363 122.053 24.7611 122.17 24.8832C122.474 25.1991 122.824 25.4852 123.21 25.7335C123.601 25.9846 124.043 26.1853 124.525 26.3299C125.007 26.475 125.545 26.5486 126.122 26.5486C126.949 26.5486 127.741 26.3891 128.476 26.0745C129.21 25.7608 129.861 25.3266 130.411 24.7839C130.962 24.2413 131.404 23.5948 131.725 22.8624C132.047 22.1278 132.21 21.3306 132.21 20.493C132.21 19.6683 132.047 18.8775 131.725 18.1424C131.404 17.4104 130.962 16.7639 130.411 16.221Z" fill="white"/>
<path id="Fill 5" fill-rule="evenodd" clip-rule="evenodd" d="M142.586 14.6267C142.343 14.6267 142.131 14.7146 141.957 14.8878C141.784 15.061 141.695 15.2722 141.695 15.5155V21.7765C141.683 22.1887 141.578 22.5805 141.384 22.9409C141.184 23.3103 140.919 23.637 140.596 23.9119C140.271 24.1893 139.899 24.4108 139.49 24.5702C139.085 24.7286 138.665 24.8089 138.243 24.8089C137.367 24.8089 136.69 24.5513 136.171 24.0214C135.65 23.4904 135.397 22.8067 135.397 21.9314V15.5155C135.397 15.2726 135.309 15.0616 135.135 14.8876C134.961 14.7145 134.749 14.6267 134.506 14.6267C134.262 14.6267 134.051 14.7146 133.877 14.8878C133.703 15.0611 133.615 15.2723 133.615 15.5155V21.9314C133.615 22.6019 133.723 23.2263 133.934 23.7872C134.147 24.3525 134.456 24.8457 134.851 25.253C135.246 25.6614 135.738 25.9832 136.312 26.2096C136.883 26.4346 137.532 26.5486 138.243 26.5486C138.738 26.5486 139.214 26.4636 139.657 26.2961C140.094 26.1314 140.49 25.9165 140.837 25.6573C141.179 25.4009 141.468 25.1198 141.695 24.8215V25.4894C141.695 25.7332 141.784 25.9444 141.957 26.1171C142.131 26.2904 142.342 26.3782 142.586 26.3782C142.83 26.3782 143.041 26.2904 143.215 26.1172C143.389 25.9439 143.477 25.7327 143.477 25.4894V15.5155C143.477 15.2726 143.389 15.0615 143.215 14.8876C143.041 14.7145 142.83 14.6267 142.586 14.6267Z" fill="white"/>
<path id="Fill 7" fill-rule="evenodd" clip-rule="evenodd" d="M153.234 20.4839C152.929 20.1998 152.571 19.9735 152.172 19.8114C151.783 19.6536 151.366 19.5403 150.933 19.4746L148.789 19.1339L148.783 19.1331C148.171 19.0509 147.692 18.885 147.361 18.6397C147.057 18.4156 146.91 18.0684 146.91 17.5782C146.91 17.2215 147.119 16.9109 147.549 16.6286C148.005 16.329 148.646 16.177 149.453 16.177C150.018 16.177 150.521 16.2491 150.949 16.3915C151.389 16.5378 151.83 16.7174 152.26 16.9255C152.408 17.0065 152.564 17.0476 152.724 17.0476C152.889 17.0476 153.04 17.0072 153.173 16.9275C153.299 16.8523 153.405 16.751 153.489 16.6259C153.579 16.4906 153.625 16.3334 153.625 16.1588C153.625 15.9636 153.568 15.7942 153.457 15.6554C153.362 15.5367 153.242 15.4366 153.099 15.3569C152.553 15.0589 151.99 14.8289 151.424 14.6732C150.855 14.5167 150.192 14.4373 149.453 14.4373C148.892 14.4373 148.348 14.5035 147.836 14.6343C147.318 14.7668 146.853 14.9691 146.452 15.2356C146.045 15.5065 145.714 15.8437 145.469 16.2377C145.218 16.6415 145.091 17.1052 145.091 17.6161C145.091 18.17 145.189 18.6463 145.382 19.0316C145.574 19.4142 145.828 19.7372 146.138 19.9915C146.444 20.2421 146.791 20.4376 147.169 20.5723C147.537 20.7035 147.909 20.7965 148.277 20.8488L150.381 21.1893C151.125 21.3071 151.655 21.5116 151.958 21.7973C152.251 22.0731 152.393 22.4389 152.393 22.9153C152.393 23.4912 152.155 23.936 151.664 24.2751C151.153 24.6292 150.421 24.8087 149.49 24.8087C148.902 24.8087 148.325 24.7056 147.774 24.5021C147.207 24.2933 146.689 24.057 146.233 23.7986C146.079 23.7131 145.92 23.6743 145.759 23.683C145.605 23.6918 145.462 23.7353 145.333 23.8122C145.205 23.8888 145.098 23.9954 145.014 24.129C144.927 24.269 144.882 24.4273 144.882 24.5997C144.882 24.9367 145.027 25.205 145.301 25.3757L145.305 25.3778C145.889 25.7276 146.549 26.0128 147.268 26.2259C147.989 26.4399 148.737 26.5484 149.49 26.5484C150.917 26.5484 152.064 26.2293 152.901 25.6C153.758 24.9557 154.199 24.0789 154.213 22.9911C154.213 22.4446 154.127 21.958 153.957 21.5447C153.786 21.1284 153.542 20.7715 153.234 20.4839Z" fill="white"/>
<path id="Fill 9" fill-rule="evenodd" clip-rule="evenodd" d="M156.546 14.6267C156.303 14.6267 156.091 14.7146 155.917 14.8879C155.744 15.0612 155.656 15.2724 155.656 15.5155V25.4895C155.656 25.7331 155.744 25.9444 155.917 26.1171C156.091 26.2904 156.303 26.3782 156.546 26.3782C156.79 26.3782 157.002 26.2904 157.175 26.1172C157.349 25.944 157.437 25.7328 157.437 25.4895V15.5155C157.437 15.2727 157.349 15.0616 157.175 14.8876C157.001 14.7145 156.79 14.6267 156.546 14.6267Z" fill="white"/>
<path id="Fill 11" fill-rule="evenodd" clip-rule="evenodd" d="M156.547 11.22C156.24 11.22 155.977 11.3269 155.766 11.5379C155.554 11.7489 155.447 12.0109 155.447 12.3169C155.447 12.6232 155.554 12.8853 155.766 13.0959C155.977 13.3069 156.24 13.4139 156.547 13.4139C156.853 13.4139 157.116 13.3069 157.327 13.096C157.539 12.8851 157.646 12.623 157.646 12.3169C157.646 12.0113 157.539 11.7492 157.327 11.5377C157.116 11.3269 156.853 11.22 156.547 11.22Z" fill="white"/>
<path id="Fill 13" fill-rule="evenodd" clip-rule="evenodd" d="M167.867 15.7518C167.471 15.3439 166.979 15.022 166.405 14.7952C165.835 14.5703 165.185 14.4563 164.475 14.4563C163.966 14.4563 163.487 14.5414 163.049 14.7093C162.618 14.8748 162.225 15.0896 161.881 15.3475C161.538 15.6039 161.249 15.8851 161.022 16.1833V15.5154C161.022 15.2726 160.934 15.0615 160.76 14.8875C160.586 14.7144 160.375 14.6266 160.131 14.6266C159.888 14.6266 159.676 14.7144 159.502 14.8877C159.329 15.061 159.24 15.2722 159.24 15.5154V25.4894C159.24 25.7331 159.329 25.9443 159.502 26.117C159.676 26.2903 159.887 26.3781 160.131 26.3781C160.375 26.3781 160.586 26.2903 160.76 26.117C160.934 25.9438 161.022 25.7326 161.022 25.4894V19.2283C161.034 18.8162 161.139 18.4245 161.334 18.0639C161.533 17.695 161.798 17.3684 162.121 17.093C162.447 16.8156 162.819 16.5941 163.227 16.4346C163.633 16.2762 164.053 16.196 164.475 16.196C165.35 16.196 166.027 16.4535 166.547 16.9833C167.068 17.515 167.321 18.1987 167.321 19.0735V25.4894C167.321 25.733 167.409 25.9442 167.582 26.117C167.756 26.2903 167.968 26.3781 168.211 26.3781C168.455 26.3781 168.666 26.2903 168.84 26.117C169.014 25.9438 169.102 25.7326 169.102 25.4894V19.0735C169.102 18.4041 168.995 17.7797 168.783 17.2174C168.57 16.6527 168.261 16.1596 167.867 15.7518Z" fill="white"/>
<path id="Fill 15" fill-rule="evenodd" clip-rule="evenodd" d="M180.685 19.6041H172.411C172.495 19.1956 172.638 18.8063 172.837 18.4435C173.082 17.9972 173.393 17.6018 173.763 17.2683C174.132 16.936 174.557 16.671 175.028 16.4809C175.496 16.2919 176.004 16.196 176.538 16.196C177.073 16.196 177.584 16.292 178.059 16.4813C178.535 16.6715 178.964 16.9363 179.332 17.2682C179.702 17.6017 180.014 17.9972 180.258 18.4435C180.457 18.8067 180.6 19.1961 180.685 19.6041ZM182.084 18.1234C181.763 17.3919 181.324 16.7486 180.78 16.2115C180.236 15.6753 179.595 15.2445 178.875 14.931C178.151 14.616 177.365 14.4563 176.538 14.4563C175.712 14.4563 174.923 14.6159 174.193 14.9307C173.466 15.2444 172.821 15.6789 172.277 16.222C171.732 16.7652 171.297 17.4119 170.982 18.1441C170.667 18.8783 170.507 19.6686 170.507 20.4929C170.507 21.3176 170.667 22.1079 170.982 22.8418C171.297 23.5734 171.732 24.2229 172.276 24.7723C172.82 25.322 173.465 25.76 174.193 26.0741C174.923 26.3889 175.712 26.5485 176.538 26.5485C177.063 26.5485 177.583 26.4787 178.083 26.3409C178.58 26.2038 179.048 26.015 179.474 25.7796C179.9 25.5442 180.289 25.2652 180.631 24.9504C180.973 24.6354 181.261 24.3015 181.486 23.9581L181.489 23.9538C181.574 23.8181 181.621 23.6674 181.63 23.5053C181.638 23.3437 181.608 23.1913 181.538 23.0515C181.469 22.9137 181.365 22.7968 181.229 22.7035C181.087 22.606 180.919 22.5566 180.73 22.5566C180.405 22.5566 180.143 22.7071 179.973 22.9918C179.592 23.5471 179.099 23.9935 178.506 24.3187C177.914 24.6439 177.252 24.8088 176.538 24.8088C176.003 24.8088 175.495 24.713 175.028 24.5239C174.557 24.334 174.132 24.0691 173.763 23.7365C173.393 23.4035 173.082 23.0082 172.837 22.5612C172.637 22.1966 172.494 21.8009 172.409 21.3817H181.679C181.92 21.3817 182.134 21.2952 182.313 21.1249C182.493 20.9538 182.588 20.7353 182.588 20.489C182.575 19.6528 182.405 18.8569 182.084 18.1235L182.084 18.1234Z" fill="white"/>
<path id="Fill 17" fill-rule="evenodd" clip-rule="evenodd" d="M190.18 21.0887C189.924 20.8136 189.617 20.5749 189.266 20.3791C188.92 20.1864 188.54 20.0375 188.138 19.9371L186.383 19.4889C185.966 19.3744 185.621 19.1931 185.358 18.9501C185.125 18.7357 185.012 18.4823 185.012 18.1751C185.012 17.9818 185.056 17.8067 185.145 17.6395C185.237 17.4675 185.362 17.3245 185.529 17.2023C185.707 17.0726 185.919 16.968 186.161 16.8916C186.405 16.8145 186.68 16.7754 186.978 16.7754C187.444 16.7754 187.875 16.8359 188.26 16.9552C188.64 17.0735 188.996 17.2394 189.318 17.4484C189.449 17.5511 189.617 17.6031 189.818 17.6031C190.046 17.6031 190.253 17.5173 190.416 17.3551C190.578 17.1928 190.664 16.9865 190.664 16.7582C190.664 16.6068 190.625 16.4652 190.549 16.3376C190.481 16.2251 190.393 16.1292 190.286 16.0526L190.27 16.0416C189.883 15.7943 189.461 15.5865 189.017 15.4237C188.667 15.2959 188.296 15.2018 187.909 15.143V14.9766C187.909 14.7484 187.82 14.5396 187.653 14.3727C187.486 14.2059 187.276 14.1177 187.048 14.1177C186.819 14.1177 186.61 14.2058 186.443 14.3728C186.275 14.5397 186.187 14.7485 186.187 14.9766V15.1504C185.862 15.2098 185.553 15.3014 185.265 15.4238C184.875 15.5901 184.533 15.8098 184.25 16.0769C183.964 16.3467 183.735 16.6632 183.571 17.0175C183.404 17.3779 183.319 17.7674 183.319 18.1751C183.319 18.5315 183.388 18.8765 183.523 19.2004C183.656 19.5202 183.846 19.8122 184.086 20.0682C184.322 20.3193 184.605 20.5383 184.926 20.719C185.244 20.898 185.592 21.0354 185.961 21.1275L187.768 21.5749C188.23 21.7076 188.617 21.9186 188.917 22.202C189.19 22.4594 189.322 22.7621 189.322 23.1273C189.322 23.3586 189.272 23.5662 189.168 23.762C189.061 23.964 188.915 24.1332 188.723 24.2793C188.523 24.4306 188.286 24.5505 188.019 24.6355C187.747 24.7217 187.444 24.7655 187.118 24.7655C186.564 24.7655 186.065 24.6857 185.635 24.5283C185.199 24.3689 184.794 24.1483 184.431 23.8728L184.412 23.8591C184.267 23.7624 184.103 23.7133 183.927 23.7133C183.698 23.7133 183.491 23.7991 183.328 23.9613C183.166 24.1236 183.08 24.33 183.08 24.5582C183.08 24.8536 183.205 25.0989 183.432 25.2511C183.857 25.5755 184.33 25.842 184.838 26.0433C185.255 26.2091 185.707 26.3283 186.187 26.3988V26.6485C186.187 26.8766 186.275 27.0854 186.443 27.2524C186.61 27.4192 186.819 27.5074 187.048 27.5074C187.276 27.5074 187.486 27.4192 187.653 27.2523C187.82 27.0855 187.909 26.8766 187.909 26.6485V26.393C188.263 26.3311 188.601 26.2315 188.916 26.0955C189.334 25.9156 189.701 25.6769 190.008 25.3862C190.318 25.0931 190.563 24.7528 190.736 24.3748C190.912 23.9912 191.002 23.5715 191.002 23.1273C191.002 22.7336 190.928 22.3599 190.783 22.0162C190.64 21.6792 190.437 21.3672 190.18 21.0887Z" fill="white"/>
<path id="Fill 19" fill-rule="evenodd" clip-rule="evenodd" d="M199.936 22.0162C199.793 21.6792 199.59 21.3671 199.332 21.0887C199.077 20.8136 198.77 20.5749 198.419 20.3791C198.073 20.1864 197.692 20.0375 197.29 19.9371L195.536 19.4889C195.119 19.3743 194.774 19.1931 194.51 18.95C194.278 18.7357 194.165 18.4822 194.165 18.1751C194.165 17.9818 194.208 17.8067 194.298 17.6395C194.389 17.4675 194.515 17.3245 194.682 17.2022C194.859 17.0726 195.072 16.968 195.313 16.8916C195.558 16.8145 195.832 16.7754 196.13 16.7754C196.596 16.7754 197.028 16.8359 197.412 16.9551C197.793 17.0735 198.149 17.2394 198.471 17.4484C198.602 17.5511 198.77 17.6031 198.97 17.6031C199.199 17.6031 199.406 17.5173 199.568 17.3551C199.731 17.1928 199.817 16.9864 199.817 16.7582C199.817 16.6068 199.778 16.4652 199.701 16.3376C199.634 16.2251 199.545 16.1292 199.438 16.0526L199.422 16.0416C199.035 15.7943 198.614 15.5864 198.169 15.4237C197.82 15.2959 197.448 15.2018 197.061 15.143V14.9766C197.061 14.7484 196.973 14.5396 196.806 14.3727C196.638 14.2059 196.429 14.1177 196.2 14.1177C195.972 14.1177 195.762 14.2058 195.595 14.3728C195.428 14.5396 195.34 14.7484 195.34 14.9766V15.1504C195.014 15.2098 194.706 15.3013 194.418 15.4238C194.027 15.5901 193.686 15.8098 193.402 16.0769C193.116 16.3467 192.888 16.6632 192.723 17.0175C192.556 17.3779 192.471 17.7674 192.471 18.1751C192.471 18.5315 192.54 18.8765 192.675 19.2004C192.809 19.5202 192.999 19.8121 193.239 20.0682C193.475 20.3193 193.758 20.5383 194.079 20.7189C194.396 20.898 194.744 21.0354 195.113 21.1275L196.921 21.5748C197.383 21.7076 197.769 21.9186 198.07 22.202C198.342 22.4594 198.475 22.7621 198.475 23.1273C198.475 23.3585 198.424 23.5662 198.321 23.7619C198.214 23.964 198.068 24.1332 197.875 24.2793C197.676 24.4306 197.439 24.5505 197.171 24.6355C196.9 24.7217 196.597 24.7654 196.271 24.7654C195.717 24.7654 195.218 24.6857 194.788 24.5283C194.351 24.3689 193.946 24.1483 193.584 23.8728L193.565 23.8591C193.419 23.7624 193.256 23.7133 193.079 23.7133C192.851 23.7133 192.644 23.7991 192.481 23.9613C192.318 24.1236 192.232 24.33 192.232 24.5582C192.232 24.8536 192.357 25.0989 192.584 25.2511C193.01 25.5754 193.483 25.842 193.99 26.0433C194.407 26.2091 194.86 26.3283 195.34 26.3988V26.6484C195.34 26.8766 195.428 27.0854 195.595 27.2523C195.763 27.4192 195.972 27.5074 196.2 27.5074C196.429 27.5074 196.638 27.4192 196.806 27.2523C196.973 27.0855 197.061 26.8766 197.061 26.6484V26.393C197.416 26.3311 197.753 26.2315 198.069 26.0954C198.486 25.9155 198.854 25.6769 199.161 25.3862C199.47 25.0931 199.715 24.7528 199.889 24.3748C200.065 23.9912 200.154 23.5715 200.154 23.1273C200.154 22.7336 200.081 22.3599 199.936 22.0162Z" fill="white"/>
<g id="Group 23">
<mask id="mask0_342_4080" style="mask-type:alpha" maskUnits="userSpaceOnUse" x="0" y="8" width="22" height="32">
<path id="Clip 22" fill-rule="evenodd" clip-rule="evenodd" d="M0 8.2688H21.2215V40.0001H0V8.2688Z" fill="white"/>
</mask>
<g mask="url(#mask0_342_4080)">
<path id="Fill 21" fill-rule="evenodd" clip-rule="evenodd" d="M7.2827 40.0001C5.92289 40.0001 5.02045 38.5945 5.58885 37.3619L8.71072 30.5925L0.175905 11.1565C-0.422028 9.79493 0.577707 8.2688 2.06759 8.2688C2.8959 8.2688 3.64404 8.76261 3.96818 9.52313L10.1647 24.0637C10.3056 24.4073 10.4269 24.7509 10.5287 25.0938C10.6304 25.4374 10.72 25.7883 10.7981 26.1466C10.9072 25.7883 11.0171 25.4374 11.1262 25.0938C11.2361 24.7509 11.3615 24.4001 11.5015 24.041L17.5182 9.45709C17.8149 8.73808 18.5171 8.2688 19.2964 8.2688C20.6787 8.2688 21.6095 9.6806 21.0623 10.9472L8.99492 38.8762C8.70019 39.5582 8.02713 40.0001 7.2827 40.0001Z" fill="#0D0E17"/>
</g>
</g>
<path id="Fill 24" fill-rule="evenodd" clip-rule="evenodd" d="M62.3644 2.07879V32.33C62.3644 33.4781 61.4858 34.4088 60.4019 34.4088C59.3181 34.4088 58.4395 33.4781 58.4395 32.33V2.07879C58.4395 0.930705 59.3181 0 60.4019 0C61.4858 0 62.3644 0.930705 62.3644 2.07879Z" fill="#ED6A32"/>
<path id="Fill 26" fill-rule="evenodd" clip-rule="evenodd" d="M71.4054 9.30194V26.7719C71.4054 27.9199 70.5268 28.8507 69.4429 28.8507C68.3591 28.8507 67.4805 27.9199 67.4805 26.7719V9.30194C67.4805 8.15385 68.3591 7.22314 69.4429 7.22314C70.5268 7.22314 71.4054 8.15385 71.4054 9.30194Z" fill="#ED6A32"/>
<path id="Fill 28" fill-rule="evenodd" clip-rule="evenodd" d="M53.8983 14.2929V24.2764C53.8983 25.4245 53.0197 26.3552 51.9358 26.3552C50.852 26.3552 49.9734 25.4245 49.9734 24.2764V14.2929C49.9734 13.1448 50.852 12.2141 51.9358 12.2141C53.0197 12.2141 53.8983 13.1448 53.8983 14.2929Z" fill="#ED6A32"/>
<path id="Fill 30" fill-rule="evenodd" clip-rule="evenodd" d="M32.7149 28.4578C28.059 28.4578 24.2847 24.6917 24.2847 20.0461C24.2847 15.4005 28.059 11.6345 32.7149 11.6345C37.3709 11.6345 41.1452 15.4005 41.1452 20.0461C41.1452 24.6917 37.3709 28.4578 32.7149 28.4578ZM32.7151 7.84302C25.9605 7.84302 20.4849 13.3066 20.4849 20.0462C20.4849 26.7859 25.9605 32.2495 32.7151 32.2495C39.4697 32.2495 44.9452 26.7859 44.9452 20.0462C44.9452 13.3066 39.4697 7.84302 32.7151 7.84302Z" fill="#0D0E17"/>
<path id="Fill 32" fill-rule="evenodd" clip-rule="evenodd" d="M89.4424 28.4578C84.7865 28.4578 81.0122 24.6917 81.0122 20.0461C81.0122 15.4005 84.7865 11.6345 89.4424 11.6345C94.0984 11.6345 97.8727 15.4005 97.8727 20.0461C97.8727 24.6917 94.0984 28.4578 89.4424 28.4578ZM89.4424 7.84302C82.6878 7.84302 77.2122 13.3066 77.2122 20.0463C77.2122 26.7859 82.6878 32.2495 89.4424 32.2495C96.1969 32.2495 101.673 26.7859 101.673 20.0463C101.673 13.3066 96.1969 7.84302 89.4424 7.84302Z" fill="#0D0E17"/>
</g>
</g>
</g>
</svg>
