<svg width="64" height="64" viewBox="0 0 64 64" fill="none" xmlns="http://www.w3.org/2000/svg">
<rect width="64" height="64" rx="26" fill="#FE446F"/>
<path d="M32 20C25.373 20 20 25.373 20 32C20 38.627 25.373 44 32 44C38.627 44 44 38.627 44 32C44 25.373 38.627 20 32 20ZM33 36.057V33H35.994C35.935 34.143 35.782 35.24 35.538 36.279C34.715 36.159 33.864 36.091 33 36.057ZM34.957 38.219C34.458 39.549 33.798 40.716 33 41.675V38.055C33.666 38.083 34.319 38.136 34.957 38.219ZM33 31V27.985C33.868 27.951 34.721 27.882 35.548 27.761C35.786 28.788 35.937 29.872 35.994 31H33ZM33 25.986V22.325C33.806 23.294 34.471 24.475 34.971 25.821C34.329 25.905 33.671 25.958 33 25.986ZM35.703 22.719C36.94 23.215 38.057 23.947 38.993 24.865C38.351 25.099 37.682 25.307 36.974 25.472C36.63 24.48 36.199 23.562 35.703 22.719ZM28.462 36.279C28.218 35.24 28.064 34.143 28.006 33H31V36.057C30.135 36.091 29.286 36.159 28.462 36.279ZM31 38.055V41.675C30.202 40.716 29.542 39.549 29.043 38.219C29.681 38.136 30.334 38.083 31 38.055ZM28.006 31C28.063 29.872 28.213 28.788 28.452 27.761C29.279 27.882 30.132 27.951 31 27.985V31H28.006ZM29.03 25.821C29.53 24.475 30.195 23.294 31 22.325V25.986C30.329 25.958 29.671 25.905 29.03 25.821ZM27.025 25.471C26.317 25.306 25.648 25.098 25.007 24.864C25.944 23.946 27.06 23.214 28.297 22.718C27.801 23.562 27.37 24.48 27.025 25.471ZM26.476 27.389C26.212 28.54 26.042 29.749 25.984 31H22.051C22.216 29.342 22.79 27.803 23.668 26.482C24.548 26.843 25.484 27.152 26.476 27.389ZM26.485 36.651C25.497 36.887 24.565 37.193 23.688 37.551C22.798 36.223 22.217 34.672 22.051 33H25.985C26.043 34.265 26.216 35.488 26.485 36.651ZM27.038 38.568C27.38 39.544 27.806 40.449 28.295 41.28C27.072 40.79 25.969 40.069 25.039 39.165C25.675 38.936 26.338 38.73 27.038 38.568ZM36.962 38.568C37.662 38.731 38.324 38.935 38.961 39.165C38.03 40.068 36.927 40.79 35.704 41.281C36.193 40.449 36.619 39.544 36.962 38.568ZM37.515 36.651C37.785 35.488 37.957 34.265 38.016 33H41.95C41.783 34.672 41.202 36.223 40.312 37.551C39.435 37.193 38.502 36.887 37.515 36.651ZM38.016 31C37.958 29.749 37.787 28.54 37.524 27.389C38.516 27.152 39.453 26.843 40.333 26.482C41.21 27.803 41.784 29.342 41.949 31H38.016Z" fill="white"/>
</svg>
