<svg width="64" height="64" viewBox="0 0 64 64" fill="none" xmlns="http://www.w3.org/2000/svg">
<rect width="64" height="64" rx="26" fill="#7F4BDC"/>
<g clip-path="url(#clip0_333_5115)">
<path d="M32 23.6667C34.2975 23.6667 36.1667 25.5358 36.1667 27.8342C36.1667 30.1308 34.2975 32.0008 32 32.0008C29.7025 32.0008 27.8333 30.1308 27.8333 27.8342C27.8333 25.5358 29.7025 23.6667 32 23.6667ZM32 22C28.7783 22 26.1667 24.6117 26.1667 27.8342C26.1667 31.055 28.7783 33.6675 32 33.6675C35.2217 33.6675 37.8333 31.055 37.8333 27.8342C37.8333 24.6117 35.2217 22 32 22V22ZM37.3075 33.1275C36.8933 33.5425 36.4267 33.9033 35.9258 34.2125C38.3192 35.7742 39.5742 38.4483 40.0692 40.3342H23.9133C24.39 38.4258 25.6283 35.7483 28.0575 34.2025C27.555 33.8908 27.0892 33.5267 26.6758 33.1092C23.1275 35.6692 22 40.1975 22 42H42C42 40.215 40.8 35.7025 37.3075 33.1275Z" fill="white"/>
</g>
<defs>
<clipPath id="clip0_333_5115">
<rect width="20" height="20" fill="white" transform="translate(22 22)"/>
</clipPath>
</defs>
</svg>
