<svg width="64" height="64" viewBox="0 0 64 64" fill="none" xmlns="http://www.w3.org/2000/svg">
<rect width="64" height="64" rx="26" fill="#24C4D5"/>
<path d="M32 20C28.852 20 26 22.553 26 25.702C26 28.85 28.602 32.609 32 38C35.398 32.609 38 28.85 38 25.702C38 22.553 35.149 20 32 20ZM32 28C30.895 28 30 27.105 30 26C30 24.895 30.895 24 32 24C33.105 24 34 24.895 34 26C34 27.105 33.105 28 32 28ZM40 40C40 42.209 36.419 44 32 44C27.581 44 24 42.209 24 40C24 38.398 25.888 37.02 28.608 36.381L29.762 38.205C29.361 38.273 28.956 38.34 28.584 38.447C25.272 39.396 25.131 40.556 28.563 41.549C30.651 42.152 33.34 42.154 35.437 41.548C39.056 40.501 38.601 39.273 35.169 38.381C34.873 38.304 34.548 38.263 34.233 38.21L35.389 36.382C38.112 37.02 40 38.398 40 40Z" fill="white"/>
</svg>
